<?xml version="1.0" encoding="utf-8"?><svg id="hexagons" image-rendering="auto" baseProfile="basic" version="1.1" x="0px" y="0px" width="800" height="800" xmlns="http://www.w3.org/2000/svg" enable-background="new 0 0 800 800" xmlns:xlink="http://www.w3.org/1999/xlink"><defs><filter id="filter1" filterUnits="objectBoundingBox" width="100%" height="100%" x="0%" y="0%"><feColorMatrix type="matrix" in="SourceGraphic" values="1 0 0 0 1 0 1 0 0 1 0 0 1 0 1 0 0 0 9999999999999 0" result="colorTrans"/></filter><g id="Tween-2" overflow="visible"><path fill="#000" stroke="none" d="M-105 -25L-105 25 105 25 105 -25 -105 -25Z"/></g><g id="Tween-3" overflow="visible"><path fill="url(#Gradient_2)" stroke="none" d="M-94 -10L-94 10 94 10 94 -10 -94 -10Z"/></g><g id="hex_small" overflow="visible"><path fill="#56C1E9" stroke="none" d="M24.65 .4Q23.95 0 23.3 0L9.55 0Q8.9 0 8.2 .4 7.5 .8 7.2 1.35L.3 13.25Q0 13.8 0 14.65 0 15.45 .3 16L7.2 27.9Q7.5 28.45 8.2 28.85 8.9 29.25 9.55 29.25L23.3 29.25Q23.95 29.25 24.65 28.85 25.3 28.45 25.65 27.9L32.5 16Q32.85 15.45 32.85 14.65 32.85 13.8 32.5 13.25L25.65 1.35Q25.3 .8 24.65 .4Z"/></g><g id="Tween-1-copy" overflow="visible"><path fill="url(#Gradient_1)" stroke="none" d="M94 -2249.9L-614.1 -2261.2 -614.1 2255.5Q-614.05 2255.5 -614 2255.5L-532 2255.5Q-526.05 2255.5 -520.05 2255.5 -503.05 2255.5 -486.05 2255.5L94 2266.8 94 -2249.9Z"/></g><linearGradient id="Gradient_1" gradientUnits="userSpaceOnUse" x1="-615.97" y1="17.1" x2="94.37" y2="17.1" spreadMethod="pad"><stop offset="0%" stop-color="#1E53A0"/><stop offset="21.56%" stop-color="#56C1E9"/><stop offset="73.33%" stop-color="#56C1E9"/><stop offset="100%" stop-color="#1E53A0"/></linearGradient><linearGradient id="Gradient_2" gradientUnits="userSpaceOnUse" x1="-94.08" y1="0" x2="93.88" y2="0" spreadMethod="pad"><stop offset="0%" stop-color="#56C1E9"/><stop offset="100%" stop-color="#1E53A0"/></linearGradient></defs><g id="Scene-1" overflow="visible"><g id="hexagon" transform="translate(281.6 172.95)"><path fill="#1E53A0" stroke="none" d="M97.05 409.45L110.55 432.8Q115.6 441.6 126.45 447.85 137.3 454.1 147.4 454.1L360.4 454.1Q370.55 454.1 381.4 447.85 392.25 441.6 397.3 432.8L410.75 409.45 97.05 409.45M488.7 274.45L503.8 248.3Q506.5 243.7 507.85 237.1L0 237.1Q.65 240.35 1.7 243.2L19.35 274.45 488.7 274.45M507.85 216.95Q506.5 210.35 503.8 205.75L488.7 179.65 19.1 179.65 10.75 194.1 10.5 194.1 5.6 202.5 5.9 202.5 4.05 205.75Q1.25 210.55 0 216.95L507.85 216.95M455.55 331.9L477.1 294.55 30.75 294.55 39.6 309.9 39.4 309.9 44.15 318.3 44.45 318.3 52.3 331.9 455.55 331.9M422.4 389.35L443.95 352 63.9 352 85.45 389.35 422.4 389.35M443.95 102.05L422.4 64.75 85.65 64.75 64 102.05 443.95 102.05M477.1 159.5L455.55 122.2 52.3 122.2 30.7 159.5 477.1 159.5M397.3 21.3Q392.25 12.5 381.4 6.25 370.55 0 360.4 0L147.4 0Q137.25 0 126.45 6.25 115.6 12.5 110.55 21.3L97.05 44.6 410.75 44.6 397.3 21.3Z"/></g><g display="none"><use xlink:href="#Tween-1-copy" transform="translate(271.05 745.3)"><animateTransform attributeName="transform" additive="replace" type="translate" repeatCount="indefinite" dur="10.23s" keyTimes="0;.342;.456;1" values="271.05,745.25;271.05,745.25;1391.05,745.25;1391.05,745.25" keySplines=".5 0 .75 .5;.5 0 .75 .5;.1 .1 .9 .9" calcMode="spline"/></use><animate attributeName="display" repeatCount="indefinite" dur="10.23s" keyTimes="0;.34;.46;1" values="none;inline;none;none"/></g><g display="none"><use xlink:href="#Tween-1-copy" transform="translate(291.05 455.3)"><animateTransform attributeName="transform" additive="replace" type="translate" repeatCount="indefinite" dur="10.23s" keyTimes="0;.482;.6;1" values="291.05,455.25;291.05,455.25;1441.05,455.25;1441.05,455.25" keySplines=".5 0 .75 .5;.5 0 .75 .5;.1 .1 .9 .9" calcMode="spline"/></use><animate attributeName="display" repeatCount="indefinite" dur="10.23s" keyTimes="0;.48;.6;1" values="none;inline;none;none"/></g><g display="none"><use xlink:href="#Tween-1-copy" transform="matrix(.62 0 0 .83 277.6 650.75)"><animateTransform attributeName="transform" additive="replace" type="translate" repeatCount="indefinite" dur="10.23s" keyTimes="0;.779;.896;1" values="277.67,653.48;277.67,653.48;1212,653.48;1212,653.48" keySplines=".5 0 .75 .5;.5 0 .75 .5;.1 .1 .9 .9" calcMode="spline"/><animateTransform attributeName="transform" additive="sum" type="scale" repeatCount="indefinite" dur="10.23s" keyTimes="0;.779;.896;1" values=".62,.83;.62,.83;.76,.83;.76,.83" keySplines=".5 0 .75 .5;.5 0 .75 .5;.1 .1 .9 .9" calcMode="spline"/><animateTransform attributeName="transform" additive="sum" type="translate" repeatCount="indefinite" dur="10.23s" keyTimes="0;.779;.896;1" values="-.2,-3.35;-.2,-3.35;-.25,-3.35;-.25,-3.35" keySplines=".5 0 .75 .5;.5 0 .75 .5;.1 .1 .9 .9" calcMode="spline"/></use><animate attributeName="display" repeatCount="indefinite" dur="10.23s" keyTimes="0;.78;.9;1" values="none;inline;none;none"/></g><g display="none"><use xlink:href="#Tween-1-copy" transform="matrix(1.49 0 0 1 271.05 399.3)"><animateTransform attributeName="transform" additive="replace" type="translate" repeatCount="indefinite" dur="10.23s" keyTimes="0;.88;.991;1" values="271.15,402.65;271.15,402.65;1391.1,402.6;1391.1,402.6" keySplines=".5 0 .75 .5;.5 0 .75 .5;.1 .1 .9 .9" calcMode="spline"/><animateTransform attributeName="transform" additive="sum" type="scale" repeatCount="indefinite" dur="10.23s" keyTimes="0;.88;.991;1" values="1.49,1;1.49,1;1,1;1,1" keySplines=".5 0 .75 .5;.5 0 .75 .5;.1 .1 .9 .9" calcMode="spline"/><animateTransform attributeName="transform" additive="sum" type="translate" repeatCount="indefinite" dur="10.23s" keyTimes="0;.88;.991;1" values="-.1,-3.4;-.1,-3.4;-.05,-3.35;-.05,-3.35" keySplines=".5 0 .75 .5;.5 0 .75 .5;.1 .1 .9 .9" calcMode="spline"/></use><animate attributeName="display" repeatCount="indefinite" dur="10.23s" keyTimes="0;.88;1" values="none;inline;inline"/></g><g display="none"><use xlink:href="#Tween-1-copy" transform="translate(271.05 793.3)"><animateTransform attributeName="transform" additive="replace" type="translate" repeatCount="indefinite" dur="10.23s" keyTimes="0;.652;.762;1" values="271.05,793.25;271.05,793.25;1391.05,793.25;1391.05,793.25" keySplines=".5 0 .75 .5;.5 0 .75 .5;.1 .1 .9 .9" calcMode="spline"/></use><animate attributeName="display" repeatCount="indefinite" dur="10.23s" keyTimes="0;.65;.77;1" values="none;inline;none;none"/></g><g id="white_left" transform="translate(-35.5 -19.5)"><path fill="#FFF" stroke="none" d="M0 0L0 856 856 856 856 0 0 0M739.5 257.2L761.05 294.5 381.1 294.5 402.75 257.2 739.5 257.2M698.5 198.7Q709.35 204.95 714.4 213.75L727.85 237.05 414.15 237.05 427.65 213.75Q432.7 204.95 443.55 198.7 454.35 192.45 464.5 192.45L677.5 192.45Q687.65 192.45 698.5 198.7M772.65 314.65L794.2 351.95 347.8 351.95 369.4 314.65 772.65 314.65M824.95 429.55Q823.6 436.15 820.9 440.75L805.8 466.9 336.45 466.9 318.8 435.65Q317.75 432.8 317.1 429.55L824.95 429.55M820.9 398.2Q823.6 402.8 824.95 409.4L317.1 409.4Q318.35 403 321.15 398.2L323 394.95 322.7 394.95 327.6 386.55 327.85 386.55 336.2 372.1 805.8 372.1 820.9 398.2M761.05 544.45L739.5 581.8 402.55 581.8 381 544.45 761.05 544.45M794.2 487L772.65 524.35 369.4 524.35 361.55 510.75 361.25 510.75 356.5 502.35 356.7 502.35 347.85 487 794.2 487M727.85 601.9L714.4 625.25Q709.35 634.05 698.5 640.3 687.65 646.55 677.5 646.55L464.5 646.55Q454.4 646.55 443.55 640.3 432.7 634.05 427.65 625.25L414.15 601.9 727.85 601.9Z"/></g><g><use xlink:href="#hex_small" transform="matrix(.06 0 0 .06 96.9 543.05)"><animateTransform attributeName="transform" additive="replace" type="translate" repeatCount="indefinite" dur="10.23s" keyTimes="0;.215;.34199;.456;1" values="97.95,544;98.41,544.24;98.41,544.24;1218.46,544.24;1218.46,544.24" keySplines=".25 .5 .5 1;.1 .1 .9 .9;.5 0 .75 .5;.1 .1 .9 .9" calcMode="spline"/><animateTransform attributeName="transform" additive="sum" type="scale" repeatCount="indefinite" dur="10.23s" keyTimes="0;.215;1" values=".06,.06;5.17,5.17;5.17,5.17" keySplines=".25 .5 .5 1;.1 .1 .9 .9" calcMode="spline"/><animateTransform attributeName="transform" additive="sum" type="translate" repeatCount="indefinite" dur="10.23s" keyTimes="0;.215;1" values="-17.15,-15.55;-16.55,-14.7;-16.55,-14.7" keySplines=".25 .5 .5 1;.1 .1 .9 .9" calcMode="spline"/></use><animate attributeName="display" repeatCount="indefinite" dur="10.23s" keyTimes="0;.46;1" values="inline;none;none"/></g><g display="none"><use xlink:href="#Tween-3" transform="translate(271.05 544)"><animateTransform attributeName="transform" additive="replace" type="translate" repeatCount="indefinite" dur="10.23s" keyTimes="0;.34199;.456;1" values="271.05,544;271.05,544;1391.05,544;1391.05,544" keySplines=".1 .1 .9 .9;.5 0 .75 .5;.1 .1 .9 .9" calcMode="spline"/></use><animate attributeName="display" repeatCount="indefinite" dur="10.23s" keyTimes="0;.21;.46;1" values="none;inline;none;none"/><animate attributeName="mask" repeatCount="indefinite" dur="10.23s" keyTimes="0;.21;.35;1" values="none;url(#mask_4);none;none"/></g><mask id="mask_4"><g filter="url(#filter1)"><g display="none"><use xlink:href="#Tween-2" transform="translate(67.5 546.5)"><animateTransform attributeName="transform" additive="replace" type="translate" repeatCount="indefinite" dur="10.23s" keyTimes="0;.215;.342;1" values="67.5,546.5;67.5,546.5;267.5,546.5;267.5,546.5" keySplines=".5 0 .75 .5;.5 0 .75 .5;0 0 1 1" calcMode="spline"/></use><animate attributeName="display" repeatCount="indefinite" dur="10.23s" keyTimes="0;.21;.35;1" values="none;inline;none;none"/></g></g></mask><g display="none"><use xlink:href="#hex_small" transform="matrix(.05 0 0 .05 176.8 482.6)"><animateTransform attributeName="transform" additive="replace" type="translate" repeatCount="indefinite" dur="10.23s" keyTimes="0;.437;.652;.77899;.896;1" values="177.7,483.4;177.7,483.4;178.04,483.79;178.04,483.79;1059.07,483.79;1059.07,483.79" keySplines=".25 .5 .5 1;.25 .5 .5 1;.1 .1 .9 .9;.5 0 .75 .5;.1 .1 .9 .9" calcMode="spline"/><animateTransform attributeName="transform" additive="sum" type="scale" repeatCount="indefinite" dur="10.23s" keyTimes="0;.437;.652;1" values=".05,.05;.05,.05;4.3,4.3;4.3,4.3" keySplines=".25 .5 .5 1;.25 .5 .5 1;.1 .1 .9 .9" calcMode="spline"/><animateTransform attributeName="transform" additive="sum" type="translate" repeatCount="indefinite" dur="10.23s" keyTimes="0;.437;.652;.77899;.896;1" values="-17.8,-15.9;-17.8,-15.9;-16.55,-14.75;-16.55,-14.75;-16.5,-14.75;-16.5,-14.75" keySplines=".25 .5 .5 1;.25 .5 .5 1;.1 .1 .9 .9;.5 0 .75 .5;.1 .1 .9 .9" calcMode="spline"/></use><animate attributeName="display" repeatCount="indefinite" dur="10.23s" keyTimes="0;.44;.9;1" values="none;inline;none;none"/></g><g display="none"><use xlink:href="#Tween-3" transform="matrix(.49 0 0 .83 281.6 483.35)"><animateTransform attributeName="transform" additive="replace" type="translate" repeatCount="indefinite" dur="10.23s" keyTimes="0;.77899;.896;1" values="281.6,483.47;281.6,483.47;1202.88,483.42;1202.88,483.42" keySplines=".1 .1 .9 .9;.5 0 .75 .5;.1 .1 .9 .9" calcMode="spline"/><animateTransform attributeName="transform" additive="sum" type="scale" repeatCount="indefinite" dur="10.23s" keyTimes="0;.77899;.896;1" values=".49,.83;.49,.83;.83,.83;.83,.83" keySplines=".1 .1 .9 .9;.5 0 .75 .5;.1 .1 .9 .9" calcMode="spline"/><animateTransform attributeName="transform" additive="sum" type="translate" repeatCount="indefinite" dur="10.23s" keyTimes="0;.77899;.896;1" values="-.1,-.2;-.1,-.2;-.1,-.15;-.1,-.15" keySplines=".1 .1 .9 .9;.5 0 .75 .5;.1 .1 .9 .9" calcMode="spline"/></use><animate attributeName="display" repeatCount="indefinite" dur="10.23s" keyTimes="0;.65;.9;1" values="none;inline;none;none"/><animate attributeName="mask" repeatCount="indefinite" dur="10.23s" keyTimes="0;.65;.78;1" values="none;url(#mask_3);none;none"/></g><mask id="mask_3"><g filter="url(#filter1)"><g display="none"><use xlink:href="#Tween-2" transform="matrix(.83 0 0 .83 152.35 485.45)"><animateTransform attributeName="transform" additive="replace" type="translate" repeatCount="indefinite" dur="10.23s" keyTimes="0;.652;.775;1" values="152.3,485.4;152.3,485.4;258.6,485.4;258.6,485.4" keySplines=".5 0 .75 .5;.5 0 .75 .5;0 0 1 1" calcMode="spline"/><animateTransform attributeName="transform" additive="sum" type="scale" repeatCount="indefinite" dur="10.23s" keyTimes="0;1" values=".83,.83;.83,.83" keySplines=".5 0 .75 .5" calcMode="spline"/></use><animate attributeName="display" repeatCount="indefinite" dur="10.23s" keyTimes="0;.65;.78;1" values="none;inline;none;none"/></g></g></mask><g display="none"><use xlink:href="#hex_small" transform="matrix(.06 0 0 .06 146.9 253.05)"><animateTransform attributeName="transform" additive="replace" type="translate" repeatCount="indefinite" dur="10.23s" keyTimes="0;.14;.355;.48199;.6;1" values="147.95,254;147.95,254;148.41,254.5;148.41,254.5;1264.21,254.5;1264.21,254.5" keySplines=".25 .5 .5 1;.25 .5 .5 1;.1 .1 .9 .9;.5 0 .75 .5;.1 .1 .9 .9" calcMode="spline"/><animateTransform attributeName="transform" additive="sum" type="scale" repeatCount="indefinite" dur="10.23s" keyTimes="0;.14;.355;1" values=".06,.06;.06,.06;5.17,5.17;5.17,5.17" keySplines=".25 .5 .5 1;.25 .5 .5 1;.1 .1 .9 .9" calcMode="spline"/><animateTransform attributeName="transform" additive="sum" type="translate" repeatCount="indefinite" dur="10.23s" keyTimes="0;.14;.355;.48199;.6;1" values="-17.1,-15.55;-17.1,-15.55;-16.55,-14.75;-16.55,-14.75;-16.5,-14.75;-16.5,-14.75" keySplines=".25 .5 .5 1;.25 .5 .5 1;.1 .1 .9 .9;.5 0 .75 .5;.1 .1 .9 .9" calcMode="spline"/></use><animate attributeName="display" repeatCount="indefinite" dur="10.23s" keyTimes="0;.14;.6;1" values="none;inline;none;none"/></g><g display="none"><use xlink:href="#Tween-3" transform="matrix(.81 0 0 1 296.05 254)"><animateTransform attributeName="transform" additive="replace" type="translate" repeatCount="indefinite" dur="10.23s" keyTimes="0;.48199;.6;1" values="296.2,254;296.2,254;1437.05,254;1437.05,254" keySplines=".1 .1 .9 .9;.5 0 .75 .5;.1 .1 .9 .9" calcMode="spline"/><animateTransform attributeName="transform" additive="sum" type="scale" repeatCount="indefinite" dur="10.23s" keyTimes="0;.48199;.6;1" values=".81,1;.81,1;1,1;1,1" keySplines=".1 .1 .9 .9;.5 0 .75 .5;.1 .1 .9 .9" calcMode="spline"/><animateTransform attributeName="transform" additive="sum" type="translate" repeatCount="indefinite" dur="10.23s" keyTimes="0;.48199;.6;1" values="-.25,0;-.25,0;0,0;0,0" keySplines=".1 .1 .9 .9;.5 0 .75 .5;.1 .1 .9 .9" calcMode="spline"/></use><animate attributeName="display" repeatCount="indefinite" dur="10.23s" keyTimes="0;.36;.6;1" values="none;inline;none;none"/><animate attributeName="mask" repeatCount="indefinite" dur="10.23s" keyTimes="0;.36;.49;1" values="none;url(#mask_2);none;none"/></g><mask id="mask_2"><g filter="url(#filter1)"><g display="none"><use xlink:href="#Tween-2" transform="translate(117.5 256.5)"><animateTransform attributeName="transform" additive="replace" type="translate" repeatCount="indefinite" dur="10.23s" keyTimes="0;.355;.482;1" values="117.5,256.5;117.5,256.5;269.5,256.5;269.5,256.5" keySplines=".5 0 .75 .5;.5 0 .75 .5;0 0 1 1" calcMode="spline"/></use><animate attributeName="display" repeatCount="indefinite" dur="10.23s" keyTimes="0;.36;.49;1" values="none;inline;none;none"/></g></g></mask><g display="none"><use xlink:href="#hex_small" transform="matrix(.06 0 0 .06 136.9 193.05)"><animateTransform attributeName="transform" additive="replace" type="translate" repeatCount="indefinite" dur="10.23s" keyTimes="0;.622;.753;.87999;.994;1" values="137.95,194;137.95,194;138.28,194.37;138.28,194.37;1248.2,194.37;1248.2,194.37" keySplines=".25 .5 .5 1;.25 .5 .5 1;.1 .1 .9 .9;.5 0 .75 .5;.1 .1 .9 .9" calcMode="spline"/><animateTransform attributeName="transform" additive="sum" type="scale" repeatCount="indefinite" dur="10.23s" keyTimes="0;.622;.753;1" values=".06,.06;.06,.06;2.7,2.7;2.7,2.7" keySplines=".25 .5 .5 1;.25 .5 .5 1;.1 .1 .9 .9" calcMode="spline"/><animateTransform attributeName="transform" additive="sum" type="translate" repeatCount="indefinite" dur="10.23s" keyTimes="0;.622;.753;.87999;.994;1" values="-16.35,-15.55;-16.35,-15.55;-16.55,-14.75;-16.55,-14.75;-16.5,-14.75;-16.5,-14.75" keySplines=".25 .5 .5 1;.25 .5 .5 1;.1 .1 .9 .9;.5 0 .75 .5;.1 .1 .9 .9" calcMode="spline"/></use><animate attributeName="display" repeatCount="indefinite" dur="10.23s" keyTimes="0;.62;1" values="none;inline;inline"/></g><g display="none"><use xlink:href="#Tween-3" transform="matrix(1.23 0 0 1 288.05 194)"><animateTransform attributeName="transform" additive="replace" type="translate" repeatCount="indefinite" dur="10.23s" keyTimes="0;.87999;.994;1" values="288.12,194;288.12,194;1391.05,194;1391.05,194" keySplines=".1 .1 .9 .9;.5 0 .75 .5;.1 .1 .9 .9" calcMode="spline"/><animateTransform attributeName="transform" additive="sum" type="scale" repeatCount="indefinite" dur="10.23s" keyTimes="0;.87999;.994;1" values="1.23,1;1.23,1;1,1;1,1" keySplines=".1 .1 .9 .9;.5 0 .75 .5;.1 .1 .9 .9" calcMode="spline"/><animateTransform attributeName="transform" additive="sum" type="translate" repeatCount="indefinite" dur="10.23s" keyTimes="0;.87999;.994;1" values="-.1,0;-.1,0;0,0;0,0" keySplines=".1 .1 .9 .9;.5 0 .75 .5;.1 .1 .9 .9" calcMode="spline"/></use><animate attributeName="display" repeatCount="indefinite" dur="10.23s" keyTimes="0;.75;1" values="none;inline;inline"/><animate attributeName="mask" repeatCount="indefinite" dur="10.23s" keyTimes="0;.75;.88;1" values="none;url(#mask_1);none;none"/></g><mask id="mask_1"><g filter="url(#filter1)"><g display="none"><use xlink:href="#Tween-2" transform="translate(67.5 196.5)"><animateTransform attributeName="transform" additive="replace" type="translate" repeatCount="indefinite" dur="10.23s" keyTimes="0;.753;.877;1" values="67.5,196.5;67.5,196.5;287.51,196.55;287.51,196.55" keySplines=".5 0 .75 .5;.5 0 .75 .5;0 0 1 1" calcMode="spline"/><animateTransform attributeName="transform" additive="sum" type="scale" repeatCount="indefinite" dur="10.23s" keyTimes="0;.753;.877;1" values="1,1;1,1;1.12,1;1.12,1" keySplines=".5 0 .75 .5;.5 0 .75 .5;0 0 1 1" calcMode="spline"/><animateTransform attributeName="transform" additive="sum" type="translate" repeatCount="indefinite" dur="10.23s" keyTimes="0;.753;.877;1" values="0,0;0,0;-.05,-.05;-.05,-.05" keySplines=".5 0 .75 .5;.5 0 .75 .5;0 0 1 1" calcMode="spline"/></use><animate attributeName="display" repeatCount="indefinite" dur="10.23s" keyTimes="0;.75;.88;1" values="none;inline;none;none"/></g></g></mask><g display="none"><use xlink:href="#hex_small" transform="matrix(.06 0 0 .06 136.9 595.05)"><animateTransform attributeName="transform" additive="replace" type="translate" repeatCount="indefinite" dur="10.23s" keyTimes="0;.394;.525;.65199;.766;1" values="137.95,596;137.95,596;138.28,596.37;138.28,596.37;1248.2,596.37;1248.2,596.37" keySplines=".25 .5 .5 1;.25 .5 .5 1;.1 .1 .9 .9;.5 0 .75 .5;.1 .1 .9 .9" calcMode="spline"/><animateTransform attributeName="transform" additive="sum" type="scale" repeatCount="indefinite" dur="10.23s" keyTimes="0;.394;.525;1" values=".06,.06;.06,.06;2.7,2.7;2.7,2.7" keySplines=".25 .5 .5 1;.25 .5 .5 1;.1 .1 .9 .9" calcMode="spline"/><animateTransform attributeName="transform" additive="sum" type="translate" repeatCount="indefinite" dur="10.23s" keyTimes="0;.394;.525;.65199;.766;1" values="-16.35,-15.55;-16.35,-15.55;-16.55,-14.75;-16.55,-14.75;-16.5,-14.75;-16.5,-14.75" keySplines=".25 .5 .5 1;.25 .5 .5 1;.1 .1 .9 .9;.5 0 .75 .5;.1 .1 .9 .9" calcMode="spline"/></use><animate attributeName="display" repeatCount="indefinite" dur="10.23s" keyTimes="0;.39;.77;1" values="none;inline;none;none"/></g><g display="none"><use xlink:href="#Tween-3" transform="matrix(1.23 0 0 1 288.05 596)"><animateTransform attributeName="transform" additive="replace" type="translate" repeatCount="indefinite" dur="10.23s" keyTimes="0;.65199;.766;1" values="288.12,596;288.12,596;1391.05,596;1391.05,596" keySplines=".1 .1 .9 .9;.5 0 .75 .5;.1 .1 .9 .9" calcMode="spline"/><animateTransform attributeName="transform" additive="sum" type="scale" repeatCount="indefinite" dur="10.23s" keyTimes="0;.65199;.766;1" values="1.23,1;1.23,1;1,1;1,1" keySplines=".1 .1 .9 .9;.5 0 .75 .5;.1 .1 .9 .9" calcMode="spline"/><animateTransform attributeName="transform" additive="sum" type="translate" repeatCount="indefinite" dur="10.23s" keyTimes="0;.65199;.766;1" values="-.1,0;-.1,0;0,0;0,0" keySplines=".1 .1 .9 .9;.5 0 .75 .5;.1 .1 .9 .9" calcMode="spline"/></use><animate attributeName="display" repeatCount="indefinite" dur="10.23s" keyTimes="0;.52;.77;1" values="none;inline;none;none"/><animate attributeName="mask" repeatCount="indefinite" dur="10.23s" keyTimes="0;.52;.65;1" values="none;url(#mask_);none;none"/></g><mask id="mask_"><g filter="url(#filter1)"><g display="none"><use xlink:href="#Tween-2" transform="translate(67.5 598.5)"><animateTransform attributeName="transform" additive="replace" type="translate" repeatCount="indefinite" dur="10.23s" keyTimes="0;.525;.648;1" values="67.5,598.5;67.5,598.5;287.51,598.55;287.51,598.55" keySplines=".5 0 .75 .5;.5 0 .75 .5;0 0 1 1" calcMode="spline"/><animateTransform attributeName="transform" additive="sum" type="scale" repeatCount="indefinite" dur="10.23s" keyTimes="0;.525;.648;1" values="1,1;1,1;1.12,1;1.12,1" keySplines=".5 0 .75 .5;.5 0 .75 .5;0 0 1 1" calcMode="spline"/><animateTransform attributeName="transform" additive="sum" type="translate" repeatCount="indefinite" dur="10.23s" keyTimes="0;.525;.648;1" values="0,0;0,0;-.05,-.05;-.05,-.05" keySplines=".5 0 .75 .5;.5 0 .75 .5;0 0 1 1" calcMode="spline"/></use><animate attributeName="display" repeatCount="indefinite" dur="10.23s" keyTimes="0;.52;.65;1" values="none;inline;none;none"/></g></g></mask><g id="white_right" transform="translate(272.6 -19.5)"><path fill="#FFF" stroke="none" d="M406.3 213.75L419.75 237.05 106.35 237.05 94 257.9 94.25 257.9 94.65 257.2 431.4 257.2 452.95 294.5 73 294.5 73.1 294.3 72.4 294.3 60.3 314.7 61.3 314.7 61.3 314.65 464.55 314.65 486.1 351.95 39.7 351.95 40.2 351.1 38.75 351.1 25.95 372.7 27.75 372.7 28.1 372.1 497.7 372.1 512.8 398.2Q515.5 402.8 516.85 409.4L9 409.4Q9.05 409.05 9.15 408.7L4.6 408.7 0 416.4 7.4 429.5 30.2 429.5 30.2 429.55 516.85 429.55Q515.5 436.15 512.8 440.75L497.7 466.9 28.6 466.9 40 487 486.1 487 464.55 524.35 61.3 524.35 61.05 523.9 60.9 523.9 72.65 544.7 73.05 544.7 72.9 544.45 452.95 544.45 431.4 581.8 94.45 581.8 94.3 581.5 93.5 581.5 105.25 602.3 106.3 602.3 106.05 601.9 419.75 601.9 406.3 625.25Q401.25 634.05 390.4 640.3 379.55 646.55 369.4 646.55L156.4 646.55Q152.45 646.55 148.4 645.6L129.75 645.6 248.9 856 547.9 856 547.9 0 246.85 0 132.55 192.8 151.55 192.8Q154.00 192.45 156.4 192.45L369.4 192.45Q379.55 192.45 390.4 198.7 401.25 204.95 406.3 213.75Z"/></g></g></svg>