<?xml version="1.0" encoding="utf-8"?><svg id="neurons_1_black" image-rendering="auto" baseProfile="basic" version="1.1" style="background-color:#FFF" x="0px" y="0px" width="900" height="900" xmlns="http://www.w3.org/2000/svg" enable-background="new 0 0 900 900" xmlns:xlink="http://www.w3.org/1999/xlink"><defs><linearGradient id="Gradient_1" gradientUnits="userSpaceOnUse" x1="-979.31" y1="7.80" x2="493.41" y2="-3.90" spreadMethod="pad"><stop offset="0%" stop-color="#25FFFE"/><stop offset="100%" stop-color="#1268B3"/></linearGradient><linearGradient id="Gradient_2" gradientUnits="userSpaceOnUse" x1="-1363.03" y1="10.85" x2="72.83" y2="-.54" spreadMethod="pad"><stop offset="0%" stop-color="#25FFFE"/><stop offset="100%" stop-color="#1268B3"/></linearGradient><linearGradient id="Gradient_3" gradientUnits="userSpaceOnUse" x1="-1168.28" y1="9.3" x2="304.38" y2="-2.40" spreadMethod="pad"><stop offset="0%" stop-color="#25FFFE"/><stop offset="100%" stop-color="#1268B3"/></linearGradient><linearGradient id="Gradient_4" gradientUnits="userSpaceOnUse" x1="-1071.93" y1="8.5" x2="363.93" y2="-2.90" spreadMethod="pad"><stop offset="0%" stop-color="#25FFFE"/><stop offset="100%" stop-color="#1268B3"/></linearGradient><linearGradient id="Gradient_5" gradientUnits="userSpaceOnUse" x1="-1186.48" y1="9.45" x2="249.38" y2="-1.95" spreadMethod="pad"><stop offset="0%" stop-color="#25FFFE"/><stop offset="100%" stop-color="#1268B3"/></linearGradient><linearGradient id="Gradient_6" gradientUnits="userSpaceOnUse" x1="-1350.31" y1="10.75" x2="122.41" y2="-.95" spreadMethod="pad"><stop offset="0%" stop-color="#25FFFE"/><stop offset="100%" stop-color="#1268B3"/></linearGradient><linearGradient id="Gradient_7" gradientUnits="userSpaceOnUse" x1="-766.58" y1="6.10" x2="669.28" y2="-5.3" spreadMethod="pad"><stop offset="0%" stop-color="#25FFFE"/><stop offset="100%" stop-color="#1268B3"/></linearGradient><linearGradient id="Gradient_8" gradientUnits="userSpaceOnUse" x1="-794.28" y1="6.35" x2="641.58" y2="-5.05" spreadMethod="pad"><stop offset="0%" stop-color="#25FFFE"/><stop offset="100%" stop-color="#1268B3"/></linearGradient><linearGradient id="Gradient_9" gradientUnits="userSpaceOnUse" x1="-959.83" y1="7.65" x2="512.83" y2="-4.05" spreadMethod="pad"><stop offset="0%" stop-color="#25FFFE"/><stop offset="100%" stop-color="#1268B3"/></linearGradient><linearGradient id="Gradient_10" gradientUnits="userSpaceOnUse" x1="-1312.15" y1="10.45" x2="160.55" y2="-1.25" spreadMethod="pad"><stop offset="0%" stop-color="#25FFFE"/><stop offset="100%" stop-color="#1268B3"/></linearGradient><linearGradient id="Gradient_11" gradientUnits="userSpaceOnUse" x1="-1068.65" y1="8.5" x2="404.05" y2="-3.20" spreadMethod="pad"><stop offset="0%" stop-color="#25FFFE"/><stop offset="100%" stop-color="#1268B3"/></linearGradient><linearGradient id="Gradient_12" gradientUnits="userSpaceOnUse" x1="-1503.58" y1="11.95" x2="-67.71" y2=".54" spreadMethod="pad"><stop offset="0%" stop-color="#25FFFE"/><stop offset="100%" stop-color="#1268B3"/></linearGradient><linearGradient id="Gradient_13" gradientUnits="userSpaceOnUse" x1="-951.90" y1="7.60" x2="520.8" y2="-4.10" spreadMethod="pad"><stop offset="0%" stop-color="#25FFFE"/><stop offset="100%" stop-color="#1268B3"/></linearGradient><linearGradient id="Gradient_14" gradientUnits="userSpaceOnUse" x1="-1154.4" y1="9.20" x2="318.3" y2="-2.50" spreadMethod="pad"><stop offset="0%" stop-color="#25FFFE"/><stop offset="100%" stop-color="#1268B3"/></linearGradient><linearGradient id="Gradient_15" gradientUnits="userSpaceOnUse" x1="-1432.93" y1="11.4" x2="2.93" y2="0" spreadMethod="pad"><stop offset="0%" stop-color="#25FFFE"/><stop offset="100%" stop-color="#1268B3"/></linearGradient><linearGradient id="Gradient_16" gradientUnits="userSpaceOnUse" x1="-1236.48" y1="9.85" x2="199.38" y2="-1.54" spreadMethod="pad"><stop offset="0%" stop-color="#25FFFE"/><stop offset="100%" stop-color="#1268B3"/></linearGradient><linearGradient id="Gradient_17" gradientUnits="userSpaceOnUse" x1="-762.5" y1="66.05" x2="710.2" y2="54.35" spreadMethod="pad"><stop offset="0%" stop-color="#25FFFE"/><stop offset="100%" stop-color="#1268B3"/></linearGradient><linearGradient id="Gradient_18" gradientUnits="userSpaceOnUse" x1="-1148.1" y1="9.15" x2="324.6" y2="-2.55" spreadMethod="pad"><stop offset="0%" stop-color="#25FFFE"/><stop offset="100%" stop-color="#1268B3"/></linearGradient><linearGradient id="Gradient_19" gradientUnits="userSpaceOnUse" x1="-1287.08" y1="10.2" x2="148.78" y2="-1.20" spreadMethod="pad"><stop offset="0%" stop-color="#25FFFE"/><stop offset="100%" stop-color="#1268B3"/></linearGradient><linearGradient id="Gradient_20" gradientUnits="userSpaceOnUse" x1="-1422.75" y1="11.3" x2="13.15" y2="-.10" spreadMethod="pad"><stop offset="0%" stop-color="#25FFFE"/><stop offset="100%" stop-color="#1268B3"/></linearGradient><linearGradient id="Gradient_21" gradientUnits="userSpaceOnUse" x1="-836.65" y1="6.65" x2="636.05" y2="-5.05" spreadMethod="pad"><stop offset="0%" stop-color="#25FFFE"/><stop offset="100%" stop-color="#1268B3"/></linearGradient><linearGradient id="Gradient_22" gradientUnits="userSpaceOnUse" x1="-1072.58" y1="8.55" x2="400.08" y2="-3.15" spreadMethod="pad"><stop offset="0%" stop-color="#25FFFE"/><stop offset="100%" stop-color="#1268B3"/></linearGradient><linearGradient id="Gradient_23" gradientUnits="userSpaceOnUse" x1="-821.35" y1="6.50" x2="651.35" y2="-5.2" spreadMethod="pad"><stop offset="0%" stop-color="#25FFFE"/><stop offset="100%" stop-color="#1268B3"/></linearGradient><linearGradient id="Gradient_24" gradientUnits="userSpaceOnUse" x1="-1134.01" y1="9.05" x2="338.71" y2="-2.65" spreadMethod="pad"><stop offset="0%" stop-color="#25FFFE"/><stop offset="100%" stop-color="#1268B3"/></linearGradient><linearGradient id="Gradient_25" gradientUnits="userSpaceOnUse" x1="-994.31" y1="7.9" x2="478.41" y2="-3.80" spreadMethod="pad"><stop offset="0%" stop-color="#25FFFE"/><stop offset="100%" stop-color="#1268B3"/></linearGradient><linearGradient id="Gradient_26" gradientUnits="userSpaceOnUse" x1="-1301.31" y1="10.35" x2="171.41" y2="-1.35" spreadMethod="pad"><stop offset="0%" stop-color="#25FFFE"/><stop offset="100%" stop-color="#1268B3"/></linearGradient><linearGradient id="Gradient_27" gradientUnits="userSpaceOnUse" x1="-1377.03" y1="10.95" x2="58.83" y2="-.45" spreadMethod="pad"><stop offset="0%" stop-color="#25FFFE"/><stop offset="100%" stop-color="#1268B3"/></linearGradient><linearGradient id="Gradient_28" gradientUnits="userSpaceOnUse" x1="-933.48" y1="7.45" x2="502.38" y2="-3.95" spreadMethod="pad"><stop offset="0%" stop-color="#25FFFE"/><stop offset="100%" stop-color="#1268B3"/></linearGradient><linearGradient id="Gradient_29" gradientUnits="userSpaceOnUse" x1="-829.92" y1="6.60" x2="605.92" y2="-4.8" spreadMethod="pad"><stop offset="0%" stop-color="#25FFFE"/><stop offset="100%" stop-color="#1268B3"/></linearGradient><linearGradient id="Gradient_30" gradientUnits="userSpaceOnUse" x1="-1116.4" y1="85.35" x2="356.3" y2="73.65" spreadMethod="pad"><stop offset="0%" stop-color="#25FFFE"/><stop offset="100%" stop-color="#1268B3"/></linearGradient></defs><g id="Scene-1" overflow="visible"><path fill="#000" stroke="none" d="M0 0L0 900 900 900 900 0 0 0Z"/><path id="Layer2_0_1_STROKES" stroke="#FFF" stroke-width="1" stroke-linejoin="round" stroke-linecap="round" fill="none" d="M0 0L900 0 900 900 0 900 0 0Z"/><g id="Symbol-74" transform="matrix(-.11 1 -1 -.11 451.8 464.55)" opacity=".35"><g id="Tween-12-copy"><animateTransform attributeName="transform" additive="replace" type="rotate" repeatCount="indefinite" dur="20.2s" keyTimes="0;.998;1" values="0,0,0;360,0,0;360,0,0"/><path fill="#3198CA" stroke="none" d="M257.15 -313.3Q257.8 -314.3 257.45 -315.45 257.15 -316.6 256.1 -317.2 255.1 -317.75 253.95 -317.45 252.75 -317.1 252.15 -316.05 251.65 -315.05 251.95 -313.85 252.3 -312.75 253.3 -312.2L253.6 -312.05 245.5 -279.3Q244.5 -279.4 243.55 -278.95 242.65 -278.5 242.15 -277.55 241.6 -276.65 241.65 -275.7 241.8 -274.75 242.35 -273.95L209.95 -242.95 209.15 -243.5Q207.35 -244.5 205.45 -243.9 203.5 -243.4 202.5 -241.6 201.5 -239.85 202.05 -237.95 202.65 -236 204.4 -235 204.85 -234.8 205.6 -234.55L202.3 -201.2Q199.75 -201.05 198.5 -198.9 197.8 -197.65 198 -196.1 198.15 -194.7 199.15 -193.65L174.45 -163.9 174 -164.2Q171.45 -165.65 168.65 -164.65L159.15 -185.1Q160 -185.7 160.6 -186.65 161.55 -188.3 161.05 -190.1 160.5 -191.9 158.85 -192.85 157.2 -193.75 155.4 -193.25 153.6 -192.75 152.65 -191.1 151.75 -189.4 152.25 -187.65 152.75 -185.85 154.45 -184.85 156.1 -183.95 157.9 -184.55L167.4 -164.05Q165.9 -163.25 165.05 -161.7 163.7 -159.35 164.45 -156.7 165.2 -154.1 167.55 -152.8L167.6 -152.8 153.5 -119.1Q151.3 -119.8 149.2 -118.9 147.05 -118.1 145.9 -116.05 144.7 -113.9 145.3 -111.35L110.35 -99.25Q109.35 -101.55 107.1 -102.8L106.8 -103 109.4 -109.5Q110.8 -109.25 112.15 -109.85 113.5 -110.4 114.25 -111.7 115.1 -113.4 114.65 -115.2 114.1 -117 112.45 -117.95 110.85 -118.85 109.05 -118.4 107.2 -117.8 106.3 -116.2 105.35 -114.55 105.85 -112.75 106.4 -110.9 108 -110L108.1 -109.95 105.6 -103.5Q103.15 -104.2 100.75 -103.35 98.35 -102.5 96.9 -100.35L52.9 -122.6Q53.6 -124.55 53.25 -126.65L64.8 -129.6Q65.1 -129 65.6 -128.55 66.6 -127.6 68.1 -127.65 69.5 -127.65 70.5 -128.7 71.5 -129.75 71.45 -131.2 71.4 -132.7 70.35 -133.65 69.35 -134.65 67.85 -134.6 66.4 -134.55 65.4 -133.55 64.35 -132.4 64.5 -130.9L52.85 -127.9Q52.1 -129.9 50.5 -131.25L68.7 -157.15Q70.25 -156.3 72.05 -156.55 73.8 -156.85 75.05 -158.2 76.7 -159.85 76.5 -162.35L96.25 -166.6Q96.5 -165.95 97.05 -165.5 98.1 -164.45 99.55 -164.45 101 -164.5 102 -165.55 102.95 -166.65 102.95 -168.1 102.9 -169.55 101.85 -170.55 100.75 -171.55 99.35 -171.45 97.85 -171.4 96.95 -170.4 95.85 -169.35 95.95 -167.9L76.25 -163.65Q75.85 -164.9 74.85 -165.8 73.3 -167.3 71.05 -167.3L65.6 -203.15Q66.75 -203.45 67.75 -204.45 68.8 -205.5 68.95 -206.95 69.2 -208.5 68.55 -209.75L93.45 -226.9 93.85 -226.45Q95.25 -225.15 97.25 -225.2 99.2 -225.25 100.55 -226.7 101.85 -228.1 101.85 -230.1 101.8 -232 100.35 -233.35 98.95 -234.75 97 -234.7 95 -234.6 93.7 -233.2 92.7 -232.15 92.45 -230.75 92.2 -229.35 92.75 -228.05L67.75 -210.9 67.55 -211.15Q66.15 -212.5 64.2 -212.45 62.2 -212.35 60.85 -210.95 59.55 -209.5 59.55 -207.55 59.65 -205.6 61.05 -204.25 62.4 -203.05 64.25 -202.95L69.7 -167.05Q68.3 -166.7 67.25 -165.55 65.7 -163.95 65.8 -161.7 65.85 -159.5 67.45 -158L67.55 -157.9 49.35 -132Q46.6 -133.55 43.5 -132.65 40.45 -131.8 38.9 -129.05 37.4 -126.45 38.1 -123.5L2.95 -110.75Q2.05 -112.35 .4 -113.3L-.05 -113.5 6.3 -132.7Q7.95 -132.45 9.5 -133.1 11.05 -133.8 11.85 -135.25 12.45 -136.45 12.45 -137.9 12.45 -139.25 11.7 -140.45L30.8 -155.9 31.3 -155.5Q32.6 -154.8 34 -155.2 35.4 -155.65 36.15 -156.95 36.9 -158.15 36.5 -159.6 36.05 -161.05 34.8 -161.75L34.4 -161.9 39.6 -180.6Q41 -180.5 41.75 -181.7 42.25 -182.55 41.9 -183.5 41.65 -184.45 40.8 -184.95 40 -185.35 39 -185.15 38.15 -184.85 37.65 -184 37.15 -183.15 37.4 -182.3 37.75 -181.35 38.55 -180.85L38.6 -180.85 33.5 -162.2Q32.45 -162.3 31.5 -161.8 30.45 -161.3 29.95 -160.4 28.95 -158.65 29.95 -156.95L10.8 -141.5Q10.3 -141.95 9.85 -142.2 8.6 -142.85 7.25 -142.85 5.95 -142.85 4.8 -142.25L-1.05 -150.6 -.75 -151.1Q-.25 -151.95 -.55 -152.85 -.8 -153.8 -1.65 -154.25 -2.45 -154.75 -3.4 -154.45 -4.3 -154.2 -4.8 -153.35 -5.25 -152.5 -5 -151.65 -4.7 -150.7 -3.85 -150.2 -2.95 -149.7 -1.9 -150.1L3.95 -141.6Q3.35 -141.1 2.85 -140.25 1.8 -138.4 2.4 -136.35 2.95 -134.3 4.8 -133.3L5.1 -133.15 -1.35 -113.9Q-3.2 -114.3 -5 -113.65 -6.85 -112.95 -7.95 -111.35L-39.9 -127.2Q-39 -129.75 -39.95 -132.35 -40.95 -135 -43.4 -136.35 -46.35 -138 -49.65 -136.85L-57.8 -154.95Q-56.45 -155.75 -55.8 -157 -54.6 -159.05 -55.25 -161.35 -55.9 -163.6 -57.95 -164.8L-58.8 -165.1 -51.5 -196.1Q-50.1 -196 -48.85 -196.65 -47.5 -197.3 -46.85 -198.55 -46.2 -199.7 -46.3 -201.15L-32.9 -203.8Q-32.45 -202.9 -31.65 -202.45 -30.55 -201.85 -29.45 -202.15L-20.75 -182.9Q-21.6 -182.35 -22.1 -181.5 -22.85 -180.1 -22.45 -178.55 -22 -177.05 -20.65 -176.25L-20.4 -176.2 -25 -162.55Q-25.9 -162.7 -26.75 -162.3 -27.55 -161.9 -28.05 -161.1 -28.65 -160.05 -28.3 -158.85 -28 -157.65 -26.9 -157.05 -25.8 -156.5 -24.7 -156.85 -23.55 -157.15 -22.9 -158.2 -22.25 -159.3 -22.6 -160.45 -22.95 -161.65 -24.05 -162.25L-24.1 -162.25 -19.5 -175.9Q-18.3 -175.6 -17.15 -176.1 -15.95 -176.65 -15.35 -177.75 -14.55 -179.15 -15 -180.7 -15.45 -182.2 -16.85 -183 -18.3 -183.8 -19.85 -183.35L-28.6 -202.55Q-28 -202.95 -27.65 -203.55 -27.05 -204.7 -27.4 -205.85L-10 -215.95Q-9.5 -215.3 -9 -215.05 -7.6 -214.3 -6 -214.75 -4.5 -215.15 -3.7 -216.5L-3.65 -216.75 10.8 -212.55Q10.7 -211.65 11.05 -210.9 11.45 -210.05 12.25 -209.65 13.35 -209.05 14.5 -209.35 15.7 -209.7 16.3 -210.8 16.85 -211.85 16.55 -213 16.2 -214.2 15.15 -214.8 14.1 -215.4 12.9 -215.05 11.75 -214.7 11.1 -213.65L11.05 -213.45 -3.35 -217.6Q-3.1 -218.85 -3.6 -220 -4.1 -221.15 -5.2 -221.8L-5.75 -222.05 -1.75 -235.95Q.1 -235.9 .9 -237.45 1.55 -238.55 1.2 -239.7 .85 -240.85 -.2 -241.5 -1.25 -242.05 -2.4 -241.7 -3.6 -241.4 -4.25 -240.35 -4.85 -239.25 -4.5 -238.1 -4.1 -236.95 -3.05 -236.3L-2.7 -236.2 -6.65 -222.25Q-7.8 -222.35 -8.85 -221.9 -9.85 -221.35 -10.45 -220.3 -11.35 -218.8 -10.75 -217.1L-28.05 -207Q-28.5 -207.4 -28.8 -207.55 -29.85 -208.15 -31.05 -207.85 -32.2 -207.5 -32.75 -206.45 -33.1 -205.85 -33.1 -205.1L-46.55 -202.45Q-47.15 -204.2 -48.7 -205.1 -50.45 -206.1 -52.35 -205.5 -54.3 -204.95 -55.25 -203.25 -56.2 -201.5 -55.7 -199.6 -55.15 -197.65 -53.4 -196.7L-52.8 -196.45 -60.1 -165.45Q-61.8 -165.65 -63.35 -164.9 -64.9 -164.1 -65.75 -162.6L-65.8 -162.4 -89.7 -171.1Q-89.35 -172.75 -90 -174.35 -90.75 -175.9 -92.2 -176.7 -94.05 -177.8 -96.15 -177.15 -98.2 -176.6 -99.2 -174.75 -100.25 -172.85 -99.7 -170.85 -99.05 -168.8 -97.2 -167.75 -95.35 -166.75 -93.3 -167.3 -91.3 -167.85 -90.25 -169.75L-90.2 -169.85 -66.3 -161.1Q-66.65 -159.25 -65.95 -157.5 -65.2 -155.75 -63.5 -154.85 -61.4 -153.65 -59.05 -154.35L-50.85 -136.35Q-52.65 -135.35 -53.75 -133.4 -55.1 -130.9 -54.55 -128.15L-101.9 -111.75Q-102.7 -113.4 -104.45 -114.35 -106.35 -115.45 -108.45 -115.1 -110.55 -114.75 -112 -113.25L-128.3 -126.05Q-127.55 -127.4 -128 -128.95 -128.45 -130.45 -129.85 -131.25 -130.45 -131.6 -131.05 -131.65L-131.35 -159.45Q-128.8 -159.85 -127.65 -162 -126.75 -163.45 -127 -165.2 -127.2 -166.8 -128.35 -168L-115.7 -183.45Q-114.25 -182.65 -112.7 -183.1 -111.1 -183.55 -110.4 -184.95 -109.6 -186.3 -110 -187.9 -110.45 -189.4 -111.85 -190.2 -113.25 -191 -114.8 -190.55 -116.35 -190.1 -117.15 -188.65 -117.7 -187.65 -117.6 -186.4 -117.45 -185.2 -116.7 -184.3L-129.4 -168.85 -129.55 -169.05Q-131 -169.8 -132.5 -169.65 -134.05 -169.5 -135.2 -168.55L-148.85 -182.25 -148.7 -182.55Q-147.9 -183.95 -148.35 -185.5 -148.75 -187 -150.2 -187.8 -151.55 -188.6 -153.1 -188.1 -154.6 -187.7 -155.4 -186.35 -156.2 -184.9 -155.75 -183.35 -155.35 -181.85 -153.95 -181.05 -152.95 -180.5 -151.8 -180.6 -150.75 -180.6 -149.8 -181.25L-136.15 -167.6 -136.6 -167Q-137.6 -165.2 -137 -163.1 -136.45 -161.05 -134.55 -160.05 -133.7 -159.55 -132.7 -159.45L-132.4 -131.65Q-134.25 -131.3 -135.1 -129.75 -135.5 -129.05 -135.6 -128.25L-162.85 -126.35Q-163.25 -128.65 -165.35 -129.8 -167.2 -130.85 -169.25 -130.25 -171.3 -129.7 -172.3 -127.8 -173.15 -126.35 -172.95 -124.65 -172.7 -123 -171.6 -121.85L-184.25 -106.55Q-185.6 -107.3 -187.15 -106.85 -188.7 -106.4 -189.45 -105.05 -190.25 -103.65 -189.85 -102.1 -189.4 -100.55 -188 -99.75 -186.6 -99 -185.05 -99.45 -183.5 -99.9 -182.75 -101.3 -182.1 -102.35 -182.25 -103.55 -182.4 -104.8 -183.2 -105.65L-170.55 -120.95 -170.35 -120.85Q-168.5 -119.85 -166.45 -120.4 -164.4 -121 -163.35 -122.8 -162.8 -123.9 -162.75 -125L-135.4 -126.9Q-135.1 -125.35 -133.65 -124.5 -132.5 -123.85 -131.3 -124 -130.1 -124.15 -129.15 -125L-112.9 -112.15 -113.1 -111.85Q-114.3 -109.6 -113.65 -107.1 -112.9 -104.55 -110.6 -103.25L-110.15 -103.05 -122.65 -59.7Q-125 -60.05 -127.1 -59.05 -129.25 -58.05 -130.45 -55.9 -132 -53.15 -131.15 -50.1 -130.25 -47.1 -127.55 -45.55 -124.75 -44 -121.8 -44.9L-97 13.85Q-98.8 14.9 -99.85 16.7 -100.8 18.45 -100.85 20.3L-127.15 21.85Q-127.6 18.85 -130.35 17.35 -131.7 16.55 -133.25 16.5 -134.8 16.5 -136.2 17.15L-148.05 -2Q-147.2 -2.7 -146.6 -3.65 -145.35 -5.9 -146 -8.4 -146.65 -10.85 -148.8 -12.2L-143.55 -22.15Q-142.35 -21.7 -141.15 -22.15 -139.85 -22.6 -139.2 -23.75 -138.5 -25.1 -138.9 -26.45 -139.3 -27.9 -140.6 -28.6 -141.9 -29.3 -143.3 -28.9 -144.7 -28.5 -145.45 -27.25 -146.1 -26.05 -145.8 -24.75 -145.45 -23.4 -144.35 -22.65L-149.65 -12.6Q-151.9 -13.6 -154.15 -12.85 -156.45 -12.05 -157.7 -9.9 -158.05 -9.3 -158.25 -8.6L-185.25 -13.55Q-185.2 -14.6 -185.7 -15.55 -186.25 -16.55 -187.25 -17.1 -188.75 -17.9 -190.35 -17.35L-200.35 -37.75Q-199.95 -38.1 -199.75 -38.5 -199.25 -39.35 -199.55 -40.3 -199.8 -41.2 -200.65 -41.7 -201.55 -42.15 -202.5 -41.9 -203.4 -41.65 -203.9 -40.8 -204.35 -39.95 -204.1 -39 -203.85 -38.1 -203 -37.6 -202.1 -37.15 -201.2 -37.4L-191.2 -16.95Q-192.1 -16.35 -192.5 -15.65 -193.25 -14.25 -192.8 -12.65 -192.35 -11.1 -191 -10.35 -189.6 -9.55 -188.05 -10 -186.5 -10.4 -185.7 -11.8L-185.45 -12.55 -158.5 -7.75Q-158.7 -5.8 -157.9 -4.05 -157 -2.25 -155.3 -1.25 -153.85 -.45 -152.25 -.45 -150.6 -.45 -149.2 -1.2L-137.35 17.85Q-138.35 18.7 -138.95 19.75 -139.75 21.2 -139.75 22.75 -139.8 24.3 -139.1 25.7L-148.2 31.35Q-148.75 30.7 -149.45 30.4 -151.05 29.45 -152.85 29.95 -154.65 30.5 -155.55 32.15L-155.75 32.55 -168.25 28.9Q-168.1 27.75 -168.5 26.75 -169.05 25.75 -170 25.2 -171.35 24.5 -172.75 24.9 -174.2 25.3 -174.9 26.6 -175.6 27.9 -175.2 29.3 -174.85 30.7 -173.5 31.45 -172.2 32.15 -170.8 31.75 -169.35 31.35 -168.65 30.05L-168.55 29.75 -156.05 33.5Q-156.3 34.9 -155.75 36.2 -155.15 37.55 -153.85 38.25 -152.2 39.1 -150.4 38.65 -148.6 38.15 -147.7 36.55 -146.6 34.6 -147.5 32.55L-138.4 26.8Q-137.55 27.85 -136.55 28.45 -134.25 29.75 -131.7 29.05 -129.15 28.3 -127.85 26 -127.2 24.7 -127.05 23.15L-100.75 21.65Q-100.15 24.95 -97.4 26.75L-123.5 77.2Q-126.35 76.2 -129 77.35L-131.8 71.65Q-131.25 71.2 -130.8 70.5 -130.05 69.2 -130.5 67.7 -130.9 66.25 -132.25 65.45 -133.6 64.7 -135.05 65.15 -136.55 65.6 -137.3 66.9 -138.05 68.2 -137.65 69.75 -137.25 71.2 -135.9 71.95 -134.4 72.8 -132.7 72.15L-129.9 77.75Q-131.7 78.75 -132.7 80.65 -133.75 82.4 -133.75 84.35L-150.6 85.95Q-151.1 84 -152.8 82.95 -154.15 82.25 -155.55 82.4 -157 82.55 -158.05 83.4L-168.9 72.45 -168.55 72Q-167.85 70.75 -168.25 69.3 -168.65 67.9 -170 67.15 -171.25 66.45 -172.7 66.85 -174.1 67.25 -174.8 68.55 -175.15 69.1 -175.3 69.95L-191.9 69.45Q-192.05 67.55 -193.8 66.6 -194.9 65.95 -196.25 66.25L-203.5 44.9Q-202.9 44.55 -202.55 43.95 -202.05 43.15 -202.35 42.2 -202.6 41.25 -203.5 40.8 -204.3 40.3 -205.2 40.6 -206.1 40.85 -206.6 41.7 -207.1 42.5 -206.85 43.5 -206.6 44.35 -205.7 44.85 -204.95 45.3 -204.25 45.15L-197 66.5Q-198.05 67 -198.6 68 -199.3 69.25 -198.9 70.7 -198.55 72.1 -197.2 72.8 -195.95 73.55 -194.55 73.1 -193.1 72.75 -192.35 71.45 -192.05 70.95 -192 70.25L-175.2 70.8Q-174.9 72.6 -173.45 73.4 -172.5 73.9 -171.45 73.85 -170.45 73.75 -169.6 73.15L-158.8 84.1 -159.3 84.8Q-160.45 86.95 -159.4 89.2L-169.55 95.7Q-169.95 95.25 -170.4 95 -171.5 94.4 -172.75 94.75 -174.05 95.1 -174.7 96.25 -175.35 97.4 -175 98.7 -174.6 99.9 -173.45 100.6 -172.35 101.25 -171.05 100.85 -169.8 100.45 -169.15 99.35 -168.35 97.95 -169 96.5L-158.85 90.1Q-158.25 90.8 -157.45 91.3 -155.75 92.25 -153.85 91.7 -151.9 91.1 -151 89.45 -150.45 88.45 -150.45 87.4L-133.55 85.7Q-133.25 87.8 -131.85 89.4L-137.95 95.65 -138.35 95.35Q-139.7 94.6 -141.15 95 -142.65 95.45 -143.4 96.8 -144.15 98.15 -143.75 99.65 -143.3 101.1 -142 101.85 -140.65 102.6 -139.15 102.2 -137.65 101.8 -136.9 100.4 -136.35 99.45 -136.45 98.3 -136.55 97.2 -137.25 96.35L-131.05 90.15Q-130.5 90.6 -129.85 90.95 -127.05 92.55 -124 91.65L-104.95 134.9Q-106.65 135.9 -107.7 137.65 -109.15 140.3 -108.35 143.3 -107.6 146.25 -105 147.75L-120.45 181.25Q-122.55 180.65 -124.6 181.45 -126.65 182.3 -127.8 184.3 -128.9 186.2 -128.45 188.5L-162.05 200.1Q-163 198 -165.1 196.8L-165.45 196.65 -159.1 180.7Q-157.6 181.05 -156.15 180.45 -154.8 179.85 -154 178.4 -152.7 176.1 -153.95 173.9L-138.6 162.35 -138 162.75Q-136.9 163.35 -135.6 163 -134.35 162.65 -133.7 161.5 -133.05 160.35 -133.4 159.05 -133.8 157.8 -134.95 157.15 -136.1 156.5 -137.35 156.85 -138.65 157.2 -139.25 158.4 -140 159.75 -139.35 161.25L-154.75 172.85Q-155.25 172.35 -155.75 172.05 -156.75 171.55 -157.85 171.5L-158.4 162.9Q-157.05 162.6 -156.35 161.35 -155.7 160.2 -156.05 158.95 -156.45 157.65 -157.55 157 -158.7 156.35 -160 156.7 -161.3 157.1 -161.9 158.25 -162.55 159.4 -162.15 160.7 -161.85 161.95 -160.7 162.6 -160.2 162.85 -159.35 163L-158.85 171.5Q-161.1 171.95 -162.15 173.9 -163.1 175.6 -162.6 177.45 -162.05 179.25 -160.4 180.2L-166.65 196.15Q-168.6 195.6 -170.65 196.05L-183.6 158.7Q-181.65 157.75 -180.7 156.05 -179.45 153.75 -180.15 151.2 -180.9 148.7 -183.15 147.35 -184.95 146.4 -186.9 146.6 -188.85 146.8 -190.35 148.05L-210.75 128.65 -210.4 128.25Q-209.45 126.5 -210 124.65 -210.55 122.7 -212.25 121.8 -213 121.35 -213.85 121.25L-212.9 102Q-210.9 101.85 -210.05 100.25 -209.35 98.95 -209.7 97.5 -210.1 96.05 -211.4 95.35 -212.7 94.65 -214.15 95.05 -215.55 95.4 -216.3 96.7 -217 98.05 -216.55 99.4 -216.15 100.85 -214.9 101.55 -214.4 101.85 -213.8 101.95L-214.8 121.15Q-217.45 121.35 -218.7 123.6 -219.1 124.4 -219.25 125.35L-239.8 124.75Q-239.95 123 -241.55 122.05 -242.85 121.35 -244.2 121.75 -245.65 122.15 -246.35 123.45 -247.1 124.7 -246.65 126.15 -246.3 127.6 -245.05 128.3 -243.75 129 -242.35 128.6 -240.9 128.25 -240.2 126.9 -239.9 126.35 -239.8 125.7L-219.3 126.3Q-219 128.8 -216.85 130.05 -215.55 130.75 -214.15 130.65 -212.75 130.5 -211.65 129.6L-191.3 149.05Q-191.75 149.7 -191.85 149.85 -193.1 152.1 -192.4 154.65 -191.65 157.2 -189.35 158.5 -187.25 159.7 -184.85 159.1L-171.95 196.55Q-174.2 197.5 -175.5 199.7 -175.9 200.45 -176.15 201.55L-187.65 199.35Q-187.55 198 -188.15 196.8 -188.75 195.55 -190.05 194.9 -191.75 193.95 -193.7 194.45 -195.55 195 -196.5 196.7 -197.45 198.4 -196.9 200.3 -196.4 202.2 -194.65 203.15 -193 204.15 -191.1 203.55 -189.15 203 -188.2 201.35L-187.8 200.4 -176.35 202.55Q-176.7 205.8 -174.6 208.3L-206.1 241.9 -206.65 241.6Q-208.5 240.5 -210.65 240.85 -212.8 241.15 -214.25 242.7L-223.95 234.45 -223.5 233.85Q-222.25 231.55 -222.95 229.05 -223.65 226.5 -225.95 225.2 -228.5 223.8 -231.15 224.75L-239.6 205.95Q-238.9 205.55 -238.55 204.8 -237.9 203.75 -238.25 202.5 -238.55 201.3 -239.6 200.65L-234 188.35Q-233.15 188.55 -232.3 188.25 -231.5 187.9 -231 187.05 -230.45 186.1 -230.75 185 -231.05 183.95 -232.05 183.45 -233.05 182.9 -234.1 183.2 -235.15 183.5 -235.7 184.45 -236.15 185.35 -235.95 186.35 -235.75 187.4 -234.85 187.95L-240.45 200.25Q-241.5 199.95 -242.5 200.35 -243.6 200.75 -244.1 201.8L-244.2 202 -258.2 198.05Q-258.15 197.2 -258.45 196.55 -258.9 195.85 -259.55 195.45 -260.6 194.9 -261.6 195.2 -262.65 195.5 -263.2 196.45 -263.75 197.45 -263.4 198.5 -263.15 199.55 -262.2 200.1 -261.2 200.65 -260.1 200.35 -259.1 200.05 -258.55 199.1L-258.5 198.95 -244.45 202.9Q-244.6 203.85 -244.1 204.75 -243.7 205.65 -242.85 206.1 -241.75 206.75 -240.45 206.35L-232 225.1Q-233.75 226 -234.6 227.65 -236.05 230.15 -235 233L-234.6 233.85Q-233.65 235.45 -232.2 236.3 -230.25 237.4 -228.15 237.05 -226.05 236.75 -224.55 235.2L-214.9 243.4 -215.3 244Q-216.55 246.25 -215.9 248.7 -215.25 251.1 -213.1 252.45L-217.65 263.1 -216.3 264.75 -211.4 253.2 -210.15 253.45Q-209.1 253.5 -208.15 253.25L-206.55 259.15Q-207.55 259.65 -208 260.5 -208.65 261.6 -208.25 262.95 -207.9 264.2 -206.75 264.85 -205.65 265.5 -204.35 265.1 -203.05 264.75 -202.45 263.6 -201.8 262.45 -202.1 261.25 -202.5 259.95 -203.65 259.25 -204.5 258.8 -205.6 258.9L-207.25 252.95Q-205.25 252.1 -204.15 250.25L-203.95 249.75 -181.8 257.35Q-182.4 260 -181.05 262.3 -180.1 263.9 -178.5 264.75 -177.05 265.55 -175.3 265.55L-173 286.4Q-174.1 286.6 -174.8 287.05 -176.5 288.1 -177.2 290 -177.9 291.85 -177.3 293.75L-187.5 299.05 -186.8 299.85 -176.9 294.65 -176.8 294.9Q-175.55 296.95 -173.2 297.55 -170.95 298.15 -168.9 296.9 -168.25 296.55 -167.75 296L-148.6 311.4Q-149.15 312.35 -149.2 313.5 -149.2 314.6 -148.65 315.6 -147.75 317.05 -146.15 317.5 -144.45 317.85 -142.95 317 -141.55 316.2 -141.1 314.5 -140.7 312.85 -141.55 311.45 -142.4 309.95 -144.05 309.55 -145.75 309.1 -147.2 309.95 -147.45 310.15 -147.9 310.55L-167.05 295.1Q-166.15 293.75 -166.1 292.15 -166.05 290.5 -166.9 289.05 -167.7 287.7 -169.05 286.95 -170.35 286.25 -171.9 286.25L-174.15 265.4Q-173.1 265.25 -172.05 264.65 -170.5 263.75 -169.6 262.15 -168.85 260.65 -168.9 258.9L-140.1 256.15Q-139.75 257.45 -139.25 258.25 -137.85 260.6 -135.25 261.25 -132.55 262 -130.3 260.6 -128.9 259.75 -128.05 258.3L-98.6 272.75Q-99.5 275.2 -98.15 277.4 -97 279.35 -94.75 279.95 -92.6 280.5 -90.65 279.3 -88.65 278.15 -88.1 275.95 -87.5 273.7 -88.7 271.8 -89.85 269.8 -92.1 269.25 -94.3 268.7 -96.25 269.85 -97.4 270.55 -98.05 271.7L-127.55 257.25Q-126.4 254.25 -128 251.6 -128.35 250.85 -129.2 250.1L-118.5 235.95Q-116.55 237.1 -114.7 235.9 -113.3 235.1 -112.9 233.55 -112.5 232 -113.3 230.6 -114.15 229.25 -115.75 228.8 -117.25 228.45 -118.65 229.25 -120.05 230.05 -120.4 231.6 -120.85 233.2 -120 234.55L-119.45 235.3 -130.15 249.4Q-131.75 248.4 -133.5 248.35 -135.4 248.35 -136.95 249.25 -138.45 250.15 -139.35 251.75 -140.2 253.25 -140.2 254.95L-169 257.8Q-169.2 256.6 -169.75 255.65 -170 255.25 -170.65 254.5L-161.3 243.8Q-160.4 244.45 -159.35 244.5 -158.25 244.5 -157.25 243.95 -155.85 243.15 -155.5 241.6 -155.1 240 -155.9 238.65 -156.75 237.3 -158.3 236.8 -159.85 236.5 -161.2 237.3 -162.55 238.1 -163 239.65 -163.4 241.25 -162.55 242.6L-162.2 243.05 -171.55 253.7Q-173.1 252.55 -175.05 252.45 -177.05 252.3 -178.8 253.4 -180.5 254.35 -181.4 256.35L-203.6 248.65Q-202.8 245.6 -204.75 243.15L-173.25 209.6 -172.5 210.1Q-169.75 211.6 -166.75 210.8 -163.7 209.9 -162.2 207.15 -160.8 204.65 -161.4 201.9L-127.85 190.3Q-126.95 192.05 -125.3 192.9 -124.2 193.5 -123 193.65L-123.15 204.35Q-124.6 204.65 -125.3 205.95 -125.95 207.1 -125.55 208.35 -125.2 209.65 -124.05 210.3 -122.9 210.9 -121.6 210.5 -120.4 210.2 -119.7 209.05 -119.05 207.9 -119.45 206.6 -119.85 205.3 -120.95 204.7 -121.45 204.45 -121.8 204.4L-121.65 193.7Q-118.25 193.35 -116.65 190.5 -115.85 189.05 -115.85 187.25L-97.55 184.85Q-97.4 185.35 -97.2 185.75 -96.4 187.1 -94.85 187.5 -93.25 187.9 -91.9 187.1L-82.95 197.5Q-83.85 198.45 -84 199.75 -84.2 201.1 -83.5 202.2 -82.7 203.6 -81.2 204 -79.6 204.35 -78.2 203.55 -76.5 202.6 -76.35 200.5L-55.95 199.75Q-55.7 201.4 -54.3 202.15 -53.15 202.8 -51.9 202.45 -50.65 202.05 -50 200.95 -49.35 199.8 -49.75 198.55 -50.15 197.25 -51.25 196.6 -52.4 195.95 -53.65 196.3 -54.9 196.7 -55.6 197.85 -55.7 198 -55.85 198.5L-76.45 199.2Q-76.7 198.6 -76.85 198.25 -77.65 197 -79.1 196.55 -80.5 196.1 -81.8 196.75L-90.9 186.2Q-90.1 185.25 -90 184.05 -89.9 182.85 -90.55 181.75 -91.35 180.35 -92.9 179.95 -94.5 179.55 -95.85 180.45 -97.6 181.5 -97.75 183.55L-116.05 185.85Q-116.6 183.45 -118.75 182.1L-103.3 148.6Q-100.8 149.4 -98.25 148.45 -95.7 147.45 -94.35 145.1 -93.65 143.65 -93.45 142.05L-69.65 142.35Q-69.3 144.65 -67.25 145.75 -65.45 146.8 -63.4 146.05L-56.7 158.6Q-57.05 158.9 -57.4 159.5 -58.05 160.65 -57.7 161.95 -57.3 163.2 -56.2 163.8 -55.05 164.5 -53.75 164.1 -52.45 163.75 -51.85 162.6 -51.2 161.45 -51.55 160.2 -51.9 158.9 -53.05 158.25 -54.25 157.65 -55.5 158L-62.2 145.5Q-61.35 144.85 -60.85 143.95 -60.2 142.7 -60.3 141.35 -60.4 139.95 -61.25 138.9L-45.8 123.1 -45.65 123.15Q-44.5 123.85 -43.2 123.45 -41.95 123.15 -41.3 122 -40.65 120.85 -41 119.55 -41.4 118.25 -42.55 117.65 -43.7 117 -44.95 117.3 -46.25 117.7 -46.9 118.85 -47.35 119.65 -47.25 120.6 -47.2 121.4 -46.7 122.15L-62.25 137.95Q-62.55 137.65 -62.7 137.55 -64.35 136.65 -66.25 137.2 -68.1 137.75 -69.1 139.4 -69.5 140.15 -69.6 140.95L-93.4 140.75Q-93.55 138.9 -94.55 137.3 -95.65 135.7 -97.3 134.7 -100.15 133.15 -103.2 134.05L-122.25 90.85Q-120.45 89.85 -119.5 88 -119 87.2 -118.7 86.15L-105.2 88.25Q-105.05 90 -103.6 90.85 -102.2 91.55 -100.8 91L-94.8 101.05Q-95.05 101.3 -95.2 101.6 -95.7 102.45 -95.4 103.4 -95.15 104.3 -94.3 104.75 -93.45 105.25 -92.5 105 -91.6 104.75 -91.1 103.9 -90.65 103.05 -90.9 102.1 -91.2 101.2 -92 100.7 -92.95 100.2 -93.9 100.5L-100 90.5Q-99.5 90.05 -99.25 89.65 -98.7 88.7 -98.95 87.35L-85.15 81.95Q-84.75 82.7 -84 83.1 -82.95 83.7 -81.7 83.4 -80.55 83.1 -79.8 82.05L-65.2 88.8Q-65.3 89.6 -65 90.25 -64.75 91 -64.05 91.4 -63.15 91.85 -62.25 91.6 -61.3 91.35 -60.85 90.5 -60.55 89.95 -60.6 89.35L-42.35 86.85Q-42.05 87.7 -41.25 88.2 -40.4 88.7 -39.45 88.45 -38.5 88.15 -38 87.3 -37.5 86.45 -37.8 85.5 -38.05 84.6 -38.9 84.15 -39.75 83.65 -40.7 83.95 -41.65 84.2 -42.15 85 -42.4 85.6 -42.4 86.15L-60.65 88.65Q-60.85 87.65 -61.75 87.25 -62.5 86.8 -63.4 87 -64.2 87.2 -64.75 87.9L-79.35 81.15Q-78.9 79.45 -80.1 78.15L-73.75 70.9 -73.6 71Q-72.75 71.45 -71.8 71.25 -70.9 70.9 -70.4 70.1 -69.95 69.25 -70.2 68.3 -70.45 67.4 -71.3 66.95 -72.2 66.45 -73.1 66.7 -74 66.95 -74.5 67.8 -75.3 69.25 -74.25 70.5L-80.65 77.7 -80.9 77.55Q-82 76.85 -83.3 77.25 -84.55 77.6 -85.2 78.75 -85.8 79.85 -85.55 81L-99.3 86.45Q-99.65 85.7 -100.45 85.3 -101.6 84.65 -102.9 84.95 -104.2 85.35 -104.8 86.5L-105 86.9 -118.5 84.85Q-118.4 82.85 -119.3 81.1 -120.15 79.25 -121.8 78.1L-95.75 27.6Q-93.7 28.3 -91.65 27.85L-86.45 44.55Q-87.75 45.15 -88.5 46.45 -89.4 48.1 -88.9 49.9 -88.35 51.65 -86.75 52.55 -85.15 53.45 -83.35 52.9 -81.55 52.45 -80.6 50.85 -79.75 49.2 -80.25 47.45 -80.75 45.6 -82.35 44.7 -83.7 44 -85.2 44.25L-90.35 27.45Q-87.9 26.4 -86.55 24.1L-86.35 23.7 -59.55 33.3Q-60.05 35.35 -59.25 37.3 -58.35 39.3 -56.5 40.35 -53.8 41.85 -50.85 40.55L-39.55 60.2Q-40.3 60.8 -40.85 61.75 -41.95 63.6 -41.35 65.65 -40.75 67.7 -38.95 68.75 -37.05 69.8 -35.05 69.2 -33 68.6 -31.9 66.75L-31.6 66 -11.45 71.25Q-11.55 72.15 -11.15 73 -10.7 73.85 -9.85 74.35 -8.3 75.25 -6.75 74.35L5.95 90.7Q5.6 91.1 5.5 91.35 4.9 92.45 5.2 93.7 5.6 95 6.75 95.65L7.3 95.95 4.75 112.8Q3.5 112.85 2.85 114 2.35 114.85 2.55 115.75 2.9 116.65 3.7 117.15 4.55 117.65 5.5 117.4 6.4 117.15 6.9 116.25 7.4 115.4 7.1 114.45 6.85 113.6 5.95 113.1L5.65 113 8.25 96.1Q10.15 96.05 11.05 94.4L11.2 94.05 25.95 97.6Q25.9 99 27.15 99.75 27.95 100.25 28.95 100 29.9 99.7 30.35 98.85 30.85 98 30.55 97.05 30.3 96.2 29.45 95.7 28.6 95.2 27.65 95.5 26.75 95.75 26.25 96.6L26.2 96.7 11.45 93.15Q11.5 92.25 11.1 91.4 10.6 90.55 9.8 90.1 8.25 89.2 6.75 90.05L-6.05 73.75Q-5.8 73.55 -5.55 73.1 -4.65 71.5 -5.55 69.95L10.45 56.8 11.05 57.25Q12.15 57.85 13.45 57.5 14.7 57.1 15.35 56 15.65 55.4 15.75 54.75L31.75 53.9Q31.95 54.9 32.85 55.35 33.7 55.85 34.65 55.55 35.55 55.3 36.05 54.45 36.55 53.65 36.25 52.65 36 51.8 35.15 51.3 34.35 50.8 33.35 51.05 32.45 51.35 31.95 52.2 31.75 52.5 31.7 52.95L15.65 53.85Q15.35 52.35 14.1 51.65 13 51 11.7 51.4 10.45 51.75 9.8 52.9 8.9 54.45 9.8 56.05L-6.15 69.2Q-6.3 69.05 -6.75 68.75 -7.9 68.15 -9.15 68.55 -10.45 68.85 -11.1 70L-11.2 70.3 -31.35 65.1Q-31.1 63.55 -31.75 62.05 -32.45 60.6 -33.9 59.8 -36.05 58.6 -38.4 59.55L-49.65 39.9Q-48.5 39.15 -47.85 37.9 -46.55 35.6 -47.3 33.05 -48 30.5 -50.25 29.25 -52.55 27.95 -55.15 28.65 -57.7 29.4 -58.95 31.7L-59.1 32 -85.9 22.5Q-85.15 19.75 -86.4 17.2L-57.8 -.4Q-57.05 .55 -55.85 1.25 -53.75 2.45 -51.35 1.9 -49 1.35 -47.6 -.65L-31.5 8.35Q-32 9.7 -31.5 11.1 -31 12.5 -29.7 13.2 -28.25 14.05 -26.6 13.55 -25.05 13.1 -24.2 11.65 -23.6 10.45 -23.8 9L-8.7 4.35Q-7.9 6.15 -6.4 7 -4.55 8 -2.55 7.45 -.5 7 .7 5.3L15.8 13.7Q15.2 15.15 15.7 16.6 16.2 18 17.55 18.8 19 19.6 20.65 19.15 22.2 18.65 23.05 17.2 23.45 16.5 23.5 15.5L46.85 16.75Q47.05 18 48.15 18.6 49.05 19.2 50.15 18.85 51.15 18.55 51.7 17.65 52.15 16.65 51.9 15.65 51.6 14.6 50.7 14.1 49.75 13.6 48.7 13.9 47.65 14.15 47.15 15.1 46.9 15.5 46.95 15.75L23.4 14.45Q23.05 12.65 21.45 11.75 20.15 11 18.7 11.3 17.2 11.6 16.25 12.9L1.15 4.4Q1.8 2.95 1.55 1.4 1.3 -.15 .2 -1.3L12.6 -14.1 13.05 -13.8Q14.25 -13.05 15.65 -13.45 17.05 -13.85 17.75 -15.1 18.4 -16.35 18 -17.7 17.65 -19.1 16.4 -19.75 15.2 -20.45 13.8 -20.1 12.4 -19.7 11.7 -18.45 11.2 -17.55 11.35 -16.45 11.45 -15.4 12.1 -14.6L-.25 -1.85Q-.65 -2.15 -1.1 -2.45 -3.1 -3.5 -5.2 -2.9 -7.35 -2.3 -8.45 -.35 -9.4 1.35 -9 3.4L-24.1 8Q-24.6 6.8 -25.75 6.15 -27.05 5.45 -28.5 5.7 -29.95 6 -30.9 7.15L-46.9 -1.85Q-45.95 -4 -46.75 -6.25 -47.45 -8.55 -49.5 -9.8L-41.2 -26.45Q-40.1 -26.05 -38.9 -26.5 -37.75 -27 -37.2 -28.1 -36.45 -29.35 -36.8 -30.7 -37.25 -32.1 -38.5 -32.75 -39.75 -33.45 -41.1 -33.1 -42.5 -32.65 -43.15 -31.45 -43.85 -30.25 -43.5 -28.95 -43.2 -27.65 -42.05 -26.95L-50.4 -10.15Q-52.55 -11.05 -54.8 -10.3 -57.1 -9.55 -58.35 -7.4 -59.9 -4.5 -58.5 -1.5L-87.05 16.05Q-88.1 14.6 -89.5 13.8L-89.85 13.6 -86.6 5.4Q-85.2 5.65 -83.85 5.1 -82.45 4.5 -81.75 3.2 -80.8 1.55 -81.35 -.2 -81.85 -2.05 -83.45 -2.95 -85.1 -3.8 -86.9 -3.3 -88.7 -2.8 -89.6 -1.2 -90.45 .45 -90 2.2 -89.5 4 -87.9 4.9L-91.1 13.2Q-93.2 12.55 -95.3 13.1L-120.05 -45.65Q-118.3 -46.65 -117.2 -48.5 -116.35 -49.9 -116.25 -51.55L-109.15 -51.45Q-109.15 -50.5 -108.6 -49.65 -108.1 -48.8 -107.2 -48.35 -106.2 -47.8 -105.1 -47.8 -104.05 -47.9 -103.2 -48.45L-93.1 -37.6 -93.55 -37Q-94.35 -35.65 -93.9 -34.05 -93.4 -32.5 -92.05 -31.7 -90.65 -31 -89.05 -31.4 -87.5 -31.85 -86.75 -33.25 -85.95 -34.65 -86.4 -36.15 -86.85 -37.75 -88.25 -38.55 -89.25 -39.05 -90.35 -38.95 -91.5 -38.9 -92.4 -38.3L-102.4 -49.05 -101.9 -49.8Q-101.35 -50.9 -101.5 -52.05 -101.55 -53.25 -102.35 -54.2L-96.25 -59.6 -96.15 -59.55Q-95.3 -59.05 -94.3 -59.35 -93.45 -59.6 -92.95 -60.4 -92.45 -61.3 -92.75 -62.25 -93 -63.15 -93.9 -63.65 -94.75 -64.1 -95.6 -63.85 -96.55 -63.6 -97 -62.75 -97.75 -61.5 -96.95 -60.35L-103.15 -54.85 -103.45 -55.1Q-104.8 -55.85 -106.35 -55.45 -107.9 -54.95 -108.65 -53.6 -108.95 -53.05 -109.05 -52.45L-116.25 -52.6Q-116.35 -54.5 -117.3 -56.2 -118.35 -57.9 -120.1 -58.85L-120.85 -59.2 -108.35 -102.5Q-106.45 -102.25 -104.7 -103.1 -102.9 -104 -101.95 -105.7 -100.85 -107.7 -101.25 -109.95L-53.9 -126.35Q-52.85 -124.15 -50.85 -123.05L-50.5 -122.9 -59.5 -100.2Q-61.65 -100.75 -63.65 -99.95 -65.65 -99.1 -66.75 -97.15 -67.5 -95.8 -67.55 -94.25 -67.6 -92.7 -67 -91.35L-80.55 -83.05Q-80.9 -83.45 -81.5 -83.9 -82.8 -84.6 -84.25 -84.2 -85.7 -83.8 -86.4 -82.5 -87.1 -81.25 -86.65 -79.8 -86.3 -78.35 -85 -77.65 -83.7 -76.95 -82.3 -77.4 -80.9 -77.75 -80.2 -79.05 -79.3 -80.55 -80 -82.15L-66.45 -90.45Q-65.5 -89.2 -64.3 -88.5 -62 -87.2 -59.45 -87.9L-51.7 -68.75Q-52.95 -68.05 -53.7 -66.8 -54.65 -64.95 -54.1 -62.9 -53.55 -60.9 -51.7 -59.85 -49.85 -58.8 -47.75 -59.35 -45.7 -59.95 -44.75 -61.75 -43.7 -63.65 -44.25 -65.7 -44.85 -67.7 -46.7 -68.8 -48.5 -69.75 -50.45 -69.3L-58.2 -88.45Q-56.65 -89.25 -55.65 -90.95 -54.35 -93.25 -55.1 -95.75 -55.8 -98.3 -58.15 -99.6L-58.25 -99.65 -49.3 -122.45Q-46.9 -121.7 -44.55 -122.55 -42.15 -123.4 -40.8 -125.45L-8.8 -109.6Q-9.35 -107.95 -8.95 -106.25 -8.5 -104.55 -7.35 -103.3L-12.1 -97.9 -12.3 -98Q-13.55 -98.7 -14.9 -98.35 -16.3 -97.95 -16.95 -96.65 -17.65 -95.45 -17.25 -94.1 -16.85 -92.7 -15.6 -92.05 -14.4 -91.35 -13.05 -91.75 -11.65 -92.15 -11 -93.3 -10.5 -94.3 -10.55 -95.35 -10.7 -96.35 -11.35 -97.15L-6.55 -102.65 -5.85 -102.1Q-4.3 -101.3 -2.55 -101.3 -.85 -101.35 .6 -102.25L13.7 -86.55Q13.1 -86 12.55 -85.1 11 -82.25 11.85 -79.15 12.75 -76.05 15.6 -74.5 16.55 -73.9 18.05 -73.6L16.9 -58.65Q15.6 -58.6 14.45 -57.95 13.35 -57.2 12.65 -56.05 11.65 -54.2 12.2 -52.2 12.8 -50.1 14.65 -49.05 16.5 -48.05 18.6 -48.6 20.6 -49.2 21.6 -51.05 22.65 -52.9 22.1 -54.95 21.55 -57 19.65 -58 19.2 -58.3 18.25 -58.6L19.4 -73.55Q21.45 -73.55 23.2 -74.6 25.05 -75.65 26.05 -77.5L26.55 -78.55 46.1 -73.1Q45.85 -71.55 46.55 -70.15 47.25 -68.65 48.65 -67.85 50.7 -66.7 52.95 -67.6L59.85 -55Q59.25 -54.55 58.8 -53.8 57.95 -52.35 58.45 -50.75 58.9 -49.1 60.3 -48.35L61 -48.05 58.15 -34.15Q57.2 -34.15 56.35 -33.7 55.5 -33.3 55 -32.45 54.3 -31.2 54.7 -29.8 55.1 -28.45 56.3 -27.75 57.6 -27.05 58.95 -27.45 60.3 -27.8 60.95 -29.1 61.7 -30.3 61.3 -31.7 60.95 -33.05 59.65 -33.7L59.15 -33.95 62 -47.8Q63.2 -47.75 64.2 -48.25 65.25 -48.8 65.85 -49.9L66.05 -50.35 91.95 -43.6Q91.75 -42.45 92.3 -41.35 92.85 -40.2 93.95 -39.65 95.4 -38.8 97.05 -39.25 98.6 -39.75 99.45 -41.2 100.25 -42.65 99.75 -44.25 99.3 -45.8 97.9 -46.7 96.45 -47.45 94.8 -47 93.25 -46.55 92.4 -45.1L92.2 -44.6 66.3 -51.35Q66.5 -52.55 65.95 -53.65 65.35 -54.75 64.3 -55.4 62.75 -56.25 61 -55.65L54.15 -68.2Q55.15 -68.95 55.6 -69.85 56.65 -71.75 56.1 -73.75 55.5 -75.8 53.65 -76.8 51.8 -77.9 49.75 -77.3 47.65 -76.75 46.65 -74.85L46.45 -74.35 26.9 -79.85Q27.4 -82.3 26.35 -84.5 25.25 -86.8 23.1 -88.05 21.2 -89.1 19 -89 16.9 -88.9 15.15 -87.75L2.05 -103.45Q2.5 -103.9 2.85 -104.6 4 -106.6 3.5 -108.95L38.7 -121.7Q39.75 -119.65 41.85 -118.45 44.5 -116.95 47.45 -117.7 50.35 -118.4 52.05 -120.9L96.1 -98.65Q95.15 -96.05 96.1 -93.4 97.05 -90.75 99.6 -89.35 101.4 -88.3 103.45 -88.35 105.4 -88.35 107.1 -89.3L121.05 -68.9Q120.5 -68.45 120.1 -67.8 119.2 -66.15 119.7 -64.35 120.25 -62.55 121.9 -61.65 123.55 -60.7 125.3 -61.2 127.15 -61.75 128.1 -63.35 129 -65.05 128.45 -66.8 127.95 -68.65 126.3 -69.6 124.25 -70.7 122.1 -69.7L108.25 -90.1Q109.35 -91 110.1 -92.3 111.6 -95 110.85 -97.95L145.75 -110.1Q146.65 -108.15 148.4 -107.1 150.8 -105.8 153.45 -106.5 156 -107.3 157.35 -109.65 157.75 -110.3 157.95 -111.05L187.65 -105.9Q187.7 -104.65 188.25 -103.6 188.9 -102.45 190.05 -101.85 192 -100.75 194.1 -101.7L200.3 -91.05Q199.8 -90.6 199.55 -90.15 198.95 -89.05 199.3 -87.85 199.65 -86.65 200.75 -86 201.85 -85.35 203.05 -85.7 204.3 -86.05 204.95 -87.2 205.55 -88.3 205.25 -89.55 204.85 -90.8 203.75 -91.4 202.5 -92.05 201.15 -91.55L194.9 -102.15Q195.7 -102.7 196.15 -103.6 197 -105 196.6 -106.7L217.85 -113.65Q218.3 -112.7 219.3 -112.15 220.5 -111.4 221.85 -111.85 223.25 -112.25 223.9 -113.45 224.5 -114.5 224.3 -115.6 224.15 -116.75 223.35 -117.55L233.3 -130.9Q234.55 -130.2 235.9 -130.6 237.3 -131 237.9 -132.2 238.5 -133.25 238.3 -134.45L258.1 -140.55Q258.45 -139.85 259.25 -139.4 260.3 -138.8 261.45 -139.1 262.6 -139.45 263.15 -140.5 263.75 -141.5 263.4 -142.65 263.1 -143.8 262.1 -144.4 261.05 -144.95 259.85 -144.6 258.7 -144.3 258.15 -143.3 257.75 -142.5 257.8 -141.5L238.05 -135.4Q237.55 -136.4 236.65 -136.85 235.4 -137.6 234 -137.2 232.7 -136.8 231.95 -135.6 231.35 -134.55 231.55 -133.4 231.75 -132.25 232.55 -131.45L222.6 -118.1Q221.3 -118.8 220 -118.45 218.6 -118 217.95 -116.8 217.35 -115.75 217.65 -114.5L196.35 -107.65Q195.75 -109.05 194.4 -109.75 192.8 -110.65 190.95 -110.15 189.2 -109.65 188.25 -108L187.9 -107.25 158.2 -112.4Q158.3 -114.3 157.4 -115.95 156.5 -117.6 154.8 -118.6L154.75 -118.6 168.8 -152.25Q171 -151.55 173.2 -152.35 175.3 -153.25 176.5 -155.3 177.6 -157.2 177.3 -159.4 177 -161.45 175.45 -163L200.2 -192.8 200.3 -192.7Q201.9 -191.8 203.7 -192.3 205.55 -192.8 206.45 -194.45 207.1 -195.55 207 -196.85L233.25 -202.15Q233.6 -201.15 234.5 -200.7 235.55 -200.1 236.65 -200.4 237.8 -200.75 238.4 -201.8 239 -202.8 238.6 -204 238.3 -205.1 237.25 -205.7 236.25 -206.3 235.1 -205.9 233.95 -205.55 233.4 -204.6 233.05 -203.95 233.05 -203.1L206.85 -197.75Q206.45 -199.65 204.7 -200.6 204.25 -200.85 203.6 -201.05L206.95 -234.4Q209.65 -234.5 211 -236.9 211.7 -238.2 211.65 -239.7 211.45 -241.15 210.6 -242.25L243 -273.2 243.5 -272.9Q244.75 -272.25 246.05 -272.6 247.45 -273 248.1 -274.25 248.8 -275.5 248.45 -276.8 248.05 -278.2 246.8 -278.85L246.4 -279.05 254.5 -311.8Q256.3 -311.7 257.15 -313.3Z"/></g></g><g id="Symbol-73" transform="translate(451.85 464.55)"><g id="Tween-4"><animateTransform attributeName="transform" additive="replace" type="rotate" repeatCount="indefinite" dur="15s" keyTimes="0;.998;1" values="0,0,0;360,0,0;360,0,0"/><path fill="#3198CA" stroke="none" d="M257.15 -313.3Q257.8 -314.3 257.45 -315.45 257.15 -316.6 256.1 -317.2 255.1 -317.75 253.95 -317.45 252.75 -317.1 252.15 -316.05 251.65 -315.05 251.95 -313.85 252.3 -312.75 253.3 -312.2L253.6 -312.05 245.5 -279.3Q244.5 -279.4 243.55 -278.95 242.65 -278.5 242.15 -277.55 241.6 -276.65 241.65 -275.7 241.8 -274.75 242.35 -273.95L209.95 -242.95 209.15 -243.5Q207.35 -244.5 205.45 -243.9 203.5 -243.4 202.5 -241.6 201.5 -239.85 202.05 -237.95 202.65 -236 204.4 -235 204.85 -234.8 205.6 -234.55L202.3 -201.2Q199.75 -201.05 198.5 -198.9 197.8 -197.65 198 -196.1 198.15 -194.7 199.15 -193.65L174.45 -163.9 174 -164.2Q171.45 -165.65 168.65 -164.65L159.15 -185.1Q160 -185.7 160.6 -186.65 161.55 -188.3 161.05 -190.1 160.5 -191.9 158.85 -192.85 157.2 -193.75 155.4 -193.25 153.6 -192.75 152.65 -191.1 151.75 -189.4 152.25 -187.65 152.75 -185.85 154.45 -184.85 156.1 -183.95 157.9 -184.55L167.4 -164.05Q165.9 -163.25 165.05 -161.7 163.7 -159.35 164.45 -156.7 165.2 -154.1 167.55 -152.8L167.6 -152.8 153.5 -119.1Q151.3 -119.8 149.2 -118.9 147.05 -118.1 145.9 -116.05 144.7 -113.9 145.3 -111.35L110.35 -99.25Q109.35 -101.55 107.1 -102.8L106.8 -103 109.4 -109.5Q110.8 -109.25 112.15 -109.85 113.5 -110.4 114.25 -111.7 115.1 -113.4 114.65 -115.2 114.1 -117 112.45 -117.95 110.85 -118.85 109.05 -118.4 107.2 -117.8 106.3 -116.2 105.35 -114.55 105.85 -112.75 106.4 -110.9 108 -110L108.1 -109.95 105.6 -103.5Q103.15 -104.2 100.75 -103.35 98.35 -102.5 96.9 -100.35L52.9 -122.6Q53.6 -124.55 53.25 -126.65L64.8 -129.6Q65.1 -129 65.6 -128.55 66.6 -127.6 68.1 -127.65 69.5 -127.65 70.5 -128.7 71.5 -129.75 71.45 -131.2 71.4 -132.7 70.35 -133.65 69.35 -134.65 67.85 -134.6 66.4 -134.55 65.4 -133.55 64.35 -132.4 64.5 -130.9L52.85 -127.9Q52.1 -129.9 50.5 -131.25L68.7 -157.15Q70.25 -156.3 72.05 -156.55 73.8 -156.85 75.05 -158.2 76.7 -159.85 76.5 -162.35L96.25 -166.6Q96.5 -165.95 97.05 -165.5 98.1 -164.45 99.55 -164.45 101 -164.5 102 -165.55 102.95 -166.65 102.95 -168.1 102.9 -169.55 101.85 -170.55 100.75 -171.55 99.35 -171.45 97.85 -171.4 96.95 -170.4 95.85 -169.35 95.95 -167.9L76.25 -163.65Q75.85 -164.9 74.85 -165.8 73.3 -167.3 71.05 -167.3L65.6 -203.15Q66.75 -203.45 67.75 -204.45 68.8 -205.5 68.95 -206.95 69.2 -208.5 68.55 -209.75L93.45 -226.9 93.85 -226.45Q95.25 -225.15 97.25 -225.2 99.2 -225.25 100.55 -226.7 101.85 -228.1 101.85 -230.1 101.8 -232 100.35 -233.35 98.95 -234.75 97 -234.7 95 -234.6 93.7 -233.2 92.7 -232.15 92.45 -230.75 92.2 -229.35 92.75 -228.05L67.75 -210.9 67.55 -211.15Q66.15 -212.5 64.2 -212.45 62.2 -212.35 60.85 -210.95 59.55 -209.5 59.55 -207.55 59.65 -205.6 61.05 -204.25 62.4 -203.05 64.25 -202.95L69.7 -167.05Q68.3 -166.7 67.25 -165.55 65.7 -163.95 65.8 -161.7 65.85 -159.5 67.45 -158L67.55 -157.9 49.35 -132Q46.6 -133.55 43.5 -132.65 40.45 -131.8 38.9 -129.05 37.4 -126.45 38.1 -123.5L2.95 -110.75Q2.05 -112.35 .4 -113.3L-.05 -113.5 6.3 -132.7Q7.95 -132.45 9.5 -133.1 11.05 -133.8 11.85 -135.25 12.45 -136.45 12.45 -137.9 12.45 -139.25 11.7 -140.45L30.8 -155.9 31.3 -155.5Q32.6 -154.8 34 -155.2 35.4 -155.65 36.15 -156.95 36.9 -158.15 36.5 -159.6 36.05 -161.05 34.8 -161.75L34.4 -161.9 39.6 -180.6Q41 -180.5 41.75 -181.7 42.25 -182.55 41.9 -183.5 41.65 -184.45 40.8 -184.95 40 -185.35 39 -185.15 38.15 -184.85 37.65 -184 37.15 -183.15 37.4 -182.3 37.75 -181.35 38.55 -180.85L38.6 -180.85 33.5 -162.2Q32.45 -162.3 31.5 -161.8 30.45 -161.3 29.95 -160.4 28.95 -158.65 29.95 -156.95L10.8 -141.5Q10.3 -141.95 9.85 -142.2 8.6 -142.85 7.25 -142.85 5.95 -142.85 4.8 -142.25L-1.05 -150.6 -.75 -151.1Q-.25 -151.95 -.55 -152.85 -.8 -153.8 -1.65 -154.25 -2.45 -154.75 -3.4 -154.45 -4.3 -154.2 -4.8 -153.35 -5.25 -152.5 -5 -151.65 -4.7 -150.7 -3.85 -150.2 -2.95 -149.7 -1.9 -150.1L3.95 -141.6Q3.35 -141.1 2.85 -140.25 1.8 -138.4 2.4 -136.35 2.95 -134.3 4.8 -133.3L5.1 -133.15 -1.35 -113.9Q-3.2 -114.3 -5 -113.65 -6.85 -112.95 -7.95 -111.35L-39.9 -127.2Q-39 -129.75 -39.95 -132.35 -40.95 -135 -43.4 -136.35 -46.35 -138 -49.65 -136.85L-57.8 -154.95Q-56.45 -155.75 -55.8 -157 -54.6 -159.05 -55.25 -161.35 -55.9 -163.6 -57.95 -164.8L-58.8 -165.1 -51.5 -196.1Q-50.1 -196 -48.85 -196.65 -47.5 -197.3 -46.85 -198.55 -46.2 -199.7 -46.3 -201.15L-32.9 -203.8Q-32.45 -202.9 -31.65 -202.45 -30.55 -201.85 -29.45 -202.15L-20.75 -182.9Q-21.6 -182.35 -22.1 -181.5 -22.85 -180.1 -22.45 -178.55 -22 -177.05 -20.65 -176.25L-20.4 -176.2 -25 -162.55Q-25.9 -162.7 -26.75 -162.3 -27.55 -161.9 -28.05 -161.1 -28.65 -160.05 -28.3 -158.85 -28 -157.65 -26.9 -157.05 -25.8 -156.5 -24.7 -156.85 -23.55 -157.15 -22.9 -158.2 -22.25 -159.3 -22.6 -160.45 -22.95 -161.65 -24.05 -162.25L-24.1 -162.25 -19.5 -175.9Q-18.3 -175.6 -17.15 -176.1 -15.95 -176.65 -15.35 -177.75 -14.55 -179.15 -15 -180.7 -15.45 -182.2 -16.85 -183 -18.3 -183.8 -19.85 -183.35L-28.6 -202.55Q-28 -202.95 -27.65 -203.55 -27.05 -204.7 -27.4 -205.85L-10 -215.95Q-9.5 -215.3 -9 -215.05 -7.6 -214.3 -6 -214.75 -4.5 -215.15 -3.7 -216.5L-3.65 -216.75 10.8 -212.55Q10.7 -211.65 11.05 -210.9 11.45 -210.05 12.25 -209.65 13.35 -209.05 14.5 -209.35 15.7 -209.7 16.3 -210.8 16.85 -211.85 16.55 -213 16.2 -214.2 15.15 -214.8 14.1 -215.4 12.9 -215.05 11.75 -214.7 11.1 -213.65L11.05 -213.45 -3.35 -217.6Q-3.1 -218.85 -3.6 -220 -4.1 -221.15 -5.2 -221.8L-5.75 -222.05 -1.75 -235.95Q.1 -235.9 .9 -237.45 1.55 -238.55 1.2 -239.7 .85 -240.85 -.2 -241.5 -1.25 -242.05 -2.4 -241.7 -3.6 -241.4 -4.25 -240.35 -4.85 -239.25 -4.5 -238.1 -4.1 -236.95 -3.05 -236.3L-2.7 -236.2 -6.65 -222.25Q-7.8 -222.35 -8.85 -221.9 -9.85 -221.35 -10.45 -220.3 -11.35 -218.8 -10.75 -217.1L-28.05 -207Q-28.5 -207.4 -28.8 -207.55 -29.85 -208.15 -31.05 -207.85 -32.2 -207.5 -32.75 -206.45 -33.1 -205.85 -33.1 -205.1L-46.55 -202.45Q-47.15 -204.2 -48.7 -205.1 -50.45 -206.1 -52.35 -205.5 -54.3 -204.95 -55.25 -203.25 -56.2 -201.5 -55.7 -199.6 -55.15 -197.65 -53.4 -196.7L-52.8 -196.45 -60.1 -165.45Q-61.8 -165.65 -63.35 -164.9 -64.9 -164.1 -65.75 -162.6L-65.8 -162.4 -89.7 -171.1Q-89.35 -172.75 -90 -174.35 -90.75 -175.9 -92.2 -176.7 -94.05 -177.8 -96.15 -177.15 -98.2 -176.6 -99.2 -174.75 -100.25 -172.85 -99.7 -170.85 -99.05 -168.8 -97.2 -167.75 -95.35 -166.75 -93.3 -167.3 -91.3 -167.85 -90.25 -169.75L-90.2 -169.85 -66.3 -161.1Q-66.65 -159.25 -65.95 -157.5 -65.2 -155.75 -63.5 -154.85 -61.4 -153.65 -59.05 -154.35L-50.85 -136.35Q-52.65 -135.35 -53.75 -133.4 -55.1 -130.9 -54.55 -128.15L-101.9 -111.75Q-102.7 -113.4 -104.45 -114.35 -106.35 -115.45 -108.45 -115.1 -110.55 -114.75 -112 -113.25L-128.3 -126.05Q-127.55 -127.4 -128 -128.95 -128.45 -130.45 -129.85 -131.25 -130.45 -131.6 -131.05 -131.65L-131.35 -159.45Q-128.8 -159.85 -127.65 -162 -126.75 -163.45 -127 -165.2 -127.2 -166.8 -128.35 -168L-115.7 -183.45Q-114.25 -182.65 -112.7 -183.1 -111.1 -183.55 -110.4 -184.95 -109.6 -186.3 -110 -187.9 -110.45 -189.4 -111.85 -190.2 -113.25 -191 -114.8 -190.55 -116.35 -190.1 -117.15 -188.65 -117.7 -187.65 -117.6 -186.4 -117.45 -185.2 -116.7 -184.3L-129.4 -168.85 -129.55 -169.05Q-131 -169.8 -132.5 -169.65 -134.05 -169.5 -135.2 -168.55L-148.85 -182.25 -148.7 -182.55Q-147.9 -183.95 -148.35 -185.5 -148.75 -187 -150.2 -187.8 -151.55 -188.6 -153.1 -188.1 -154.6 -187.7 -155.4 -186.35 -156.2 -184.9 -155.75 -183.35 -155.35 -181.85 -153.95 -181.05 -152.95 -180.5 -151.8 -180.6 -150.75 -180.6 -149.8 -181.25L-136.15 -167.6 -136.6 -167Q-137.6 -165.2 -137 -163.1 -136.45 -161.05 -134.55 -160.05 -133.7 -159.55 -132.7 -159.45L-132.4 -131.65Q-134.25 -131.3 -135.1 -129.75 -135.5 -129.05 -135.6 -128.25L-162.85 -126.35Q-163.25 -128.65 -165.35 -129.8 -167.2 -130.85 -169.25 -130.25 -171.3 -129.7 -172.3 -127.8 -173.15 -126.35 -172.95 -124.65 -172.7 -123 -171.6 -121.85L-184.25 -106.55Q-185.6 -107.3 -187.15 -106.85 -188.7 -106.4 -189.45 -105.05 -190.25 -103.65 -189.85 -102.1 -189.4 -100.55 -188 -99.75 -186.6 -99 -185.05 -99.45 -183.5 -99.9 -182.75 -101.3 -182.1 -102.35 -182.25 -103.55 -182.4 -104.8 -183.2 -105.65L-170.55 -120.95 -170.35 -120.85Q-168.5 -119.85 -166.45 -120.4 -164.4 -121 -163.35 -122.8 -162.8 -123.9 -162.75 -125L-135.4 -126.9Q-135.1 -125.35 -133.65 -124.5 -132.5 -123.85 -131.3 -124 -130.1 -124.15 -129.15 -125L-112.9 -112.15 -113.1 -111.85Q-114.3 -109.6 -113.65 -107.1 -112.9 -104.55 -110.6 -103.25L-110.15 -103.05 -122.65 -59.7Q-125 -60.05 -127.1 -59.05 -129.25 -58.05 -130.45 -55.9 -132 -53.15 -131.15 -50.1 -130.25 -47.1 -127.55 -45.55 -124.75 -44 -121.8 -44.9L-97 13.85Q-98.8 14.9 -99.85 16.7 -100.8 18.45 -100.85 20.3L-127.15 21.85Q-127.6 18.85 -130.35 17.35 -131.7 16.55 -133.25 16.5 -134.8 16.5 -136.2 17.15L-148.05 -2Q-147.2 -2.7 -146.6 -3.65 -145.35 -5.9 -146 -8.4 -146.65 -10.85 -148.8 -12.2L-143.55 -22.15Q-142.35 -21.7 -141.15 -22.15 -139.85 -22.6 -139.2 -23.75 -138.5 -25.1 -138.9 -26.45 -139.3 -27.9 -140.6 -28.6 -141.9 -29.3 -143.3 -28.9 -144.7 -28.5 -145.45 -27.25 -146.1 -26.05 -145.8 -24.75 -145.45 -23.4 -144.35 -22.65L-149.65 -12.6Q-151.9 -13.6 -154.15 -12.85 -156.45 -12.05 -157.7 -9.9 -158.05 -9.3 -158.25 -8.6L-185.25 -13.55Q-185.2 -14.6 -185.7 -15.55 -186.25 -16.55 -187.25 -17.1 -188.75 -17.9 -190.35 -17.35L-200.35 -37.75Q-199.95 -38.1 -199.75 -38.5 -199.25 -39.35 -199.55 -40.3 -199.8 -41.2 -200.65 -41.7 -201.55 -42.15 -202.5 -41.9 -203.4 -41.65 -203.9 -40.8 -204.35 -39.95 -204.1 -39 -203.85 -38.1 -203 -37.6 -202.1 -37.15 -201.2 -37.4L-191.2 -16.95Q-192.1 -16.35 -192.5 -15.65 -193.25 -14.25 -192.8 -12.65 -192.35 -11.1 -191 -10.35 -189.6 -9.55 -188.05 -10 -186.5 -10.4 -185.7 -11.8L-185.45 -12.55 -158.5 -7.75Q-158.7 -5.8 -157.9 -4.05 -157 -2.25 -155.3 -1.25 -153.85 -.45 -152.25 -.45 -150.6 -.45 -149.2 -1.2L-137.35 17.85Q-138.35 18.7 -138.95 19.75 -139.75 21.2 -139.75 22.75 -139.8 24.3 -139.1 25.7L-148.2 31.35Q-148.75 30.7 -149.45 30.4 -151.05 29.45 -152.85 29.95 -154.65 30.5 -155.55 32.15L-155.75 32.55 -168.25 28.9Q-168.1 27.75 -168.5 26.75 -169.05 25.75 -170 25.2 -171.35 24.5 -172.75 24.9 -174.2 25.3 -174.9 26.6 -175.6 27.9 -175.2 29.3 -174.85 30.7 -173.5 31.45 -172.2 32.15 -170.8 31.75 -169.35 31.35 -168.65 30.05L-168.55 29.75 -156.05 33.5Q-156.3 34.9 -155.75 36.2 -155.15 37.55 -153.85 38.25 -152.2 39.1 -150.4 38.65 -148.6 38.15 -147.7 36.55 -146.6 34.6 -147.5 32.55L-138.4 26.8Q-137.55 27.85 -136.55 28.45 -134.25 29.75 -131.7 29.05 -129.15 28.3 -127.85 26 -127.2 24.7 -127.05 23.15L-100.75 21.65Q-100.15 24.95 -97.4 26.75L-123.5 77.2Q-126.35 76.2 -129 77.35L-131.8 71.65Q-131.25 71.2 -130.8 70.5 -130.05 69.2 -130.5 67.7 -130.9 66.25 -132.25 65.45 -133.6 64.7 -135.05 65.15 -136.55 65.6 -137.3 66.9 -138.05 68.2 -137.65 69.75 -137.25 71.2 -135.9 71.95 -134.4 72.8 -132.7 72.15L-129.9 77.75Q-131.7 78.75 -132.7 80.65 -133.75 82.4 -133.75 84.35L-150.6 85.95Q-151.1 84 -152.8 82.95 -154.15 82.25 -155.55 82.4 -157 82.55 -158.05 83.4L-168.9 72.45 -168.55 72Q-167.85 70.75 -168.25 69.3 -168.65 67.9 -170 67.15 -171.25 66.45 -172.7 66.85 -174.1 67.25 -174.8 68.55 -175.15 69.1 -175.3 69.95L-191.9 69.45Q-192.05 67.55 -193.8 66.6 -194.9 65.95 -196.25 66.25L-203.5 44.9Q-202.9 44.55 -202.55 43.95 -202.05 43.15 -202.35 42.2 -202.6 41.25 -203.5 40.8 -204.3 40.3 -205.2 40.6 -206.1 40.85 -206.6 41.7 -207.1 42.5 -206.85 43.5 -206.6 44.35 -205.7 44.85 -204.95 45.3 -204.25 45.15L-197 66.5Q-198.05 67 -198.6 68 -199.3 69.25 -198.9 70.7 -198.55 72.1 -197.2 72.8 -195.95 73.55 -194.55 73.1 -193.1 72.75 -192.35 71.45 -192.05 70.95 -192 70.25L-175.2 70.8Q-174.9 72.6 -173.45 73.4 -172.5 73.9 -171.45 73.85 -170.45 73.75 -169.6 73.15L-158.8 84.1 -159.3 84.8Q-160.45 86.95 -159.4 89.2L-169.55 95.7Q-169.95 95.25 -170.4 95 -171.5 94.4 -172.75 94.75 -174.05 95.1 -174.7 96.25 -175.35 97.4 -175 98.7 -174.6 99.9 -173.45 100.6 -172.35 101.25 -171.05 100.85 -169.8 100.45 -169.15 99.35 -168.35 97.95 -169 96.5L-158.85 90.1Q-158.25 90.8 -157.45 91.3 -155.75 92.25 -153.85 91.7 -151.9 91.1 -151 89.45 -150.45 88.45 -150.45 87.4L-133.55 85.7Q-133.25 87.8 -131.85 89.4L-137.95 95.65 -138.35 95.35Q-139.7 94.6 -141.15 95 -142.65 95.45 -143.4 96.8 -144.15 98.15 -143.75 99.65 -143.3 101.1 -142 101.85 -140.65 102.6 -139.15 102.2 -137.65 101.8 -136.9 100.4 -136.35 99.45 -136.45 98.3 -136.55 97.2 -137.25 96.35L-131.05 90.15Q-130.5 90.6 -129.85 90.95 -127.05 92.55 -124 91.65L-104.95 134.9Q-106.65 135.9 -107.7 137.65 -109.15 140.3 -108.35 143.3 -107.6 146.25 -105 147.75L-120.45 181.25Q-122.55 180.65 -124.6 181.45 -126.65 182.3 -127.8 184.3 -128.9 186.2 -128.45 188.5L-162.05 200.1Q-163 198 -165.1 196.8L-165.45 196.65 -159.1 180.7Q-157.6 181.05 -156.15 180.45 -154.8 179.85 -154 178.4 -152.7 176.1 -153.95 173.9L-138.6 162.35 -138 162.75Q-136.9 163.35 -135.6 163 -134.35 162.65 -133.7 161.5 -133.05 160.35 -133.4 159.05 -133.8 157.8 -134.95 157.15 -136.1 156.5 -137.35 156.85 -138.65 157.2 -139.25 158.4 -140 159.75 -139.35 161.25L-154.75 172.85Q-155.25 172.35 -155.75 172.05 -156.75 171.55 -157.85 171.5L-158.4 162.9Q-157.05 162.6 -156.35 161.35 -155.7 160.2 -156.05 158.95 -156.45 157.65 -157.55 157 -158.7 156.35 -160 156.7 -161.3 157.1 -161.9 158.25 -162.55 159.4 -162.15 160.7 -161.85 161.95 -160.7 162.6 -160.2 162.85 -159.35 163L-158.85 171.5Q-161.1 171.95 -162.15 173.9 -163.1 175.6 -162.6 177.45 -162.05 179.25 -160.4 180.2L-166.65 196.15Q-168.6 195.6 -170.65 196.05L-183.6 158.7Q-181.65 157.75 -180.7 156.05 -179.45 153.75 -180.15 151.2 -180.9 148.7 -183.15 147.35 -184.95 146.4 -186.9 146.6 -188.85 146.8 -190.35 148.05L-210.75 128.65 -210.4 128.25Q-209.45 126.5 -210 124.65 -210.55 122.7 -212.25 121.8 -213 121.35 -213.85 121.25L-212.9 102Q-210.9 101.85 -210.05 100.25 -209.35 98.95 -209.7 97.5 -210.1 96.05 -211.4 95.35 -212.7 94.65 -214.15 95.05 -215.55 95.4 -216.3 96.7 -217 98.05 -216.55 99.4 -216.15 100.85 -214.9 101.55 -214.4 101.85 -213.8 101.95L-214.8 121.15Q-217.45 121.35 -218.7 123.6 -219.1 124.4 -219.25 125.35L-239.8 124.75Q-239.95 123 -241.55 122.05 -242.85 121.35 -244.2 121.75 -245.65 122.15 -246.35 123.45 -247.1 124.7 -246.65 126.15 -246.3 127.6 -245.05 128.3 -243.75 129 -242.35 128.6 -240.9 128.25 -240.2 126.9 -239.9 126.35 -239.8 125.7L-219.3 126.3Q-219 128.8 -216.85 130.05 -215.55 130.75 -214.15 130.65 -212.75 130.5 -211.65 129.6L-191.3 149.05Q-191.75 149.7 -191.85 149.85 -193.1 152.1 -192.4 154.65 -191.65 157.2 -189.35 158.5 -187.25 159.7 -184.85 159.1L-171.95 196.55Q-174.2 197.5 -175.5 199.7 -175.9 200.45 -176.15 201.55L-187.65 199.35Q-187.55 198 -188.15 196.8 -188.75 195.55 -190.05 194.9 -191.75 193.95 -193.7 194.45 -195.55 195 -196.5 196.7 -197.45 198.4 -196.9 200.3 -196.4 202.2 -194.65 203.15 -193 204.15 -191.1 203.55 -189.15 203 -188.2 201.35L-187.8 200.4 -176.35 202.55Q-176.7 205.8 -174.6 208.3L-206.1 241.9 -206.65 241.6Q-208.5 240.5 -210.65 240.85 -212.8 241.15 -214.25 242.7L-223.95 234.45 -223.5 233.85Q-222.25 231.55 -222.95 229.05 -223.65 226.5 -225.95 225.2 -228.5 223.8 -231.15 224.75L-239.6 205.95Q-238.9 205.55 -238.55 204.8 -237.9 203.75 -238.25 202.5 -238.55 201.3 -239.6 200.65L-234 188.35Q-233.15 188.55 -232.3 188.25 -231.5 187.9 -231 187.05 -230.45 186.1 -230.75 185 -231.05 183.95 -232.05 183.45 -233.05 182.9 -234.1 183.2 -235.15 183.5 -235.7 184.45 -236.15 185.35 -235.95 186.35 -235.75 187.4 -234.85 187.95L-240.45 200.25Q-241.5 199.95 -242.5 200.35 -243.6 200.75 -244.1 201.8L-244.2 202 -258.2 198.05Q-258.15 197.2 -258.45 196.55 -258.9 195.85 -259.55 195.45 -260.6 194.9 -261.6 195.2 -262.65 195.5 -263.2 196.45 -263.75 197.45 -263.4 198.5 -263.15 199.55 -262.2 200.1 -261.2 200.65 -260.1 200.35 -259.1 200.05 -258.55 199.1L-258.5 198.95 -244.45 202.9Q-244.6 203.85 -244.1 204.75 -243.7 205.65 -242.85 206.1 -241.75 206.75 -240.45 206.35L-232 225.1Q-233.75 226 -234.6 227.65 -236.05 230.15 -235 233L-234.6 233.85Q-233.65 235.45 -232.2 236.3 -230.25 237.4 -228.15 237.05 -226.05 236.75 -224.55 235.2L-214.9 243.4 -215.3 244Q-216.55 246.25 -215.9 248.7 -215.25 251.1 -213.1 252.45L-217.65 263.1 -216.3 264.75 -211.4 253.2 -210.15 253.45Q-209.1 253.5 -208.15 253.25L-206.55 259.15Q-207.55 259.65 -208 260.5 -208.65 261.6 -208.25 262.95 -207.9 264.2 -206.75 264.85 -205.65 265.5 -204.35 265.1 -203.05 264.75 -202.45 263.6 -201.8 262.45 -202.1 261.25 -202.5 259.95 -203.65 259.25 -204.5 258.8 -205.6 258.9L-207.25 252.95Q-205.25 252.1 -204.15 250.25L-203.95 249.75 -181.8 257.35Q-182.4 260 -181.05 262.3 -180.1 263.9 -178.5 264.75 -177.05 265.55 -175.3 265.55L-173 286.4Q-174.1 286.6 -174.8 287.05 -176.5 288.1 -177.2 290 -177.9 291.85 -177.3 293.75L-187.5 299.05 -186.8 299.85 -176.9 294.65 -176.8 294.9Q-175.55 296.95 -173.2 297.55 -170.95 298.15 -168.9 296.9 -168.25 296.55 -167.75 296L-148.6 311.4Q-149.15 312.35 -149.2 313.5 -149.2 314.6 -148.65 315.6 -147.75 317.05 -146.15 317.5 -144.45 317.85 -142.95 317 -141.55 316.2 -141.1 314.5 -140.7 312.85 -141.55 311.45 -142.4 309.95 -144.05 309.55 -145.75 309.1 -147.2 309.95 -147.45 310.15 -147.9 310.55L-167.05 295.1Q-166.15 293.75 -166.1 292.15 -166.05 290.5 -166.9 289.05 -167.7 287.7 -169.05 286.95 -170.35 286.25 -171.9 286.25L-174.15 265.4Q-173.1 265.25 -172.05 264.65 -170.5 263.75 -169.6 262.15 -168.85 260.65 -168.9 258.9L-140.1 256.15Q-139.75 257.45 -139.25 258.25 -137.85 260.6 -135.25 261.25 -132.55 262 -130.3 260.6 -128.9 259.75 -128.05 258.3L-98.6 272.75Q-99.5 275.2 -98.15 277.4 -97 279.35 -94.75 279.95 -92.6 280.5 -90.65 279.3 -88.65 278.15 -88.1 275.95 -87.5 273.7 -88.7 271.8 -89.85 269.8 -92.1 269.25 -94.3 268.7 -96.25 269.85 -97.4 270.55 -98.05 271.7L-127.55 257.25Q-126.4 254.25 -128 251.6 -128.35 250.85 -129.2 250.1L-118.5 235.95Q-116.55 237.1 -114.7 235.9 -113.3 235.1 -112.9 233.55 -112.5 232 -113.3 230.6 -114.15 229.25 -115.75 228.8 -117.25 228.45 -118.65 229.25 -120.05 230.05 -120.4 231.6 -120.85 233.2 -120 234.55L-119.45 235.3 -130.15 249.4Q-131.75 248.4 -133.5 248.35 -135.4 248.35 -136.95 249.25 -138.45 250.15 -139.35 251.75 -140.2 253.25 -140.2 254.95L-169 257.8Q-169.2 256.6 -169.75 255.65 -170 255.25 -170.65 254.5L-161.3 243.8Q-160.4 244.45 -159.35 244.5 -158.25 244.5 -157.25 243.95 -155.85 243.15 -155.5 241.6 -155.1 240 -155.9 238.65 -156.75 237.3 -158.3 236.8 -159.85 236.5 -161.2 237.3 -162.55 238.1 -163 239.65 -163.4 241.25 -162.55 242.6L-162.2 243.05 -171.55 253.7Q-173.1 252.55 -175.05 252.45 -177.05 252.3 -178.8 253.4 -180.5 254.35 -181.4 256.35L-203.6 248.65Q-202.8 245.6 -204.75 243.15L-173.25 209.6 -172.5 210.1Q-169.75 211.6 -166.75 210.8 -163.7 209.9 -162.2 207.15 -160.8 204.65 -161.4 201.9L-127.85 190.3Q-126.95 192.05 -125.3 192.9 -124.2 193.5 -123 193.65L-123.15 204.35Q-124.6 204.65 -125.3 205.95 -125.95 207.1 -125.55 208.35 -125.2 209.65 -124.05 210.3 -122.9 210.9 -121.6 210.5 -120.4 210.2 -119.7 209.05 -119.05 207.9 -119.45 206.6 -119.85 205.3 -120.95 204.7 -121.45 204.45 -121.8 204.4L-121.65 193.7Q-118.25 193.35 -116.65 190.5 -115.85 189.05 -115.85 187.25L-97.55 184.85Q-97.4 185.35 -97.2 185.75 -96.4 187.1 -94.85 187.5 -93.25 187.9 -91.9 187.1L-82.95 197.5Q-83.85 198.45 -84 199.75 -84.2 201.1 -83.5 202.2 -82.7 203.6 -81.2 204 -79.6 204.35 -78.2 203.55 -76.5 202.6 -76.35 200.5L-55.95 199.75Q-55.7 201.4 -54.3 202.15 -53.15 202.8 -51.9 202.45 -50.65 202.05 -50 200.95 -49.35 199.8 -49.75 198.55 -50.15 197.25 -51.25 196.6 -52.4 195.95 -53.65 196.3 -54.9 196.7 -55.6 197.85 -55.7 198 -55.85 198.5L-76.45 199.2Q-76.7 198.6 -76.85 198.25 -77.65 197 -79.1 196.55 -80.5 196.1 -81.8 196.75L-90.9 186.2Q-90.1 185.25 -90 184.05 -89.9 182.85 -90.55 181.75 -91.35 180.35 -92.9 179.95 -94.5 179.55 -95.85 180.45 -97.6 181.5 -97.75 183.55L-116.05 185.85Q-116.6 183.45 -118.75 182.1L-103.3 148.6Q-100.8 149.4 -98.25 148.45 -95.7 147.45 -94.35 145.1 -93.65 143.65 -93.45 142.05L-69.65 142.35Q-69.3 144.65 -67.25 145.75 -65.45 146.8 -63.4 146.05L-56.7 158.6Q-57.05 158.9 -57.4 159.5 -58.05 160.65 -57.7 161.95 -57.3 163.2 -56.2 163.8 -55.05 164.5 -53.75 164.1 -52.45 163.75 -51.85 162.6 -51.2 161.45 -51.55 160.2 -51.9 158.9 -53.05 158.25 -54.25 157.65 -55.5 158L-62.2 145.5Q-61.35 144.85 -60.85 143.95 -60.2 142.7 -60.3 141.35 -60.4 139.95 -61.25 138.9L-45.8 123.1 -45.65 123.15Q-44.5 123.85 -43.2 123.45 -41.95 123.15 -41.3 122 -40.65 120.85 -41 119.55 -41.4 118.25 -42.55 117.65 -43.7 117 -44.95 117.3 -46.25 117.7 -46.9 118.85 -47.35 119.65 -47.25 120.6 -47.2 121.4 -46.7 122.15L-62.25 137.95Q-62.55 137.65 -62.7 137.55 -64.35 136.65 -66.25 137.2 -68.1 137.75 -69.1 139.4 -69.5 140.15 -69.6 140.95L-93.4 140.75Q-93.55 138.9 -94.55 137.3 -95.65 135.7 -97.3 134.7 -100.15 133.15 -103.2 134.05L-122.25 90.85Q-120.45 89.85 -119.5 88 -119 87.2 -118.7 86.15L-105.2 88.25Q-105.05 90 -103.6 90.85 -102.2 91.55 -100.8 91L-94.8 101.05Q-95.05 101.3 -95.2 101.6 -95.7 102.45 -95.4 103.4 -95.15 104.3 -94.3 104.75 -93.45 105.25 -92.5 105 -91.6 104.75 -91.1 103.9 -90.65 103.05 -90.9 102.1 -91.2 101.2 -92 100.7 -92.95 100.2 -93.9 100.5L-100 90.5Q-99.5 90.05 -99.25 89.65 -98.7 88.7 -98.95 87.35L-85.15 81.95Q-84.75 82.7 -84 83.1 -82.95 83.7 -81.7 83.4 -80.55 83.1 -79.8 82.05L-65.2 88.8Q-65.3 89.6 -65 90.25 -64.75 91 -64.05 91.4 -63.15 91.85 -62.25 91.6 -61.3 91.35 -60.85 90.5 -60.55 89.95 -60.6 89.35L-42.35 86.85Q-42.05 87.7 -41.25 88.2 -40.4 88.7 -39.45 88.45 -38.5 88.15 -38 87.3 -37.5 86.45 -37.8 85.5 -38.05 84.6 -38.9 84.15 -39.75 83.65 -40.7 83.95 -41.65 84.2 -42.15 85 -42.4 85.6 -42.4 86.15L-60.65 88.65Q-60.85 87.65 -61.75 87.25 -62.5 86.8 -63.4 87 -64.2 87.2 -64.75 87.9L-79.35 81.15Q-78.9 79.45 -80.1 78.15L-73.75 70.9 -73.6 71Q-72.75 71.45 -71.8 71.25 -70.9 70.9 -70.4 70.1 -69.95 69.25 -70.2 68.3 -70.45 67.4 -71.3 66.95 -72.2 66.45 -73.1 66.7 -74 66.95 -74.5 67.8 -75.3 69.25 -74.25 70.5L-80.65 77.7 -80.9 77.55Q-82 76.85 -83.3 77.25 -84.55 77.6 -85.2 78.75 -85.8 79.85 -85.55 81L-99.3 86.45Q-99.65 85.7 -100.45 85.3 -101.6 84.65 -102.9 84.95 -104.2 85.35 -104.8 86.5L-105 86.9 -118.5 84.85Q-118.4 82.85 -119.3 81.1 -120.15 79.25 -121.8 78.1L-95.75 27.6Q-93.7 28.3 -91.65 27.85L-86.45 44.55Q-87.75 45.15 -88.5 46.45 -89.4 48.1 -88.9 49.9 -88.35 51.65 -86.75 52.55 -85.15 53.45 -83.35 52.9 -81.55 52.45 -80.6 50.85 -79.75 49.2 -80.25 47.45 -80.75 45.6 -82.35 44.7 -83.7 44 -85.2 44.25L-90.35 27.45Q-87.9 26.4 -86.55 24.1L-86.35 23.7 -59.55 33.3Q-60.05 35.35 -59.25 37.3 -58.35 39.3 -56.5 40.35 -53.8 41.85 -50.85 40.55L-39.55 60.2Q-40.3 60.8 -40.85 61.75 -41.95 63.6 -41.35 65.65 -40.75 67.7 -38.95 68.75 -37.05 69.8 -35.05 69.2 -33 68.6 -31.9 66.75L-31.6 66 -11.45 71.25Q-11.55 72.15 -11.15 73 -10.7 73.85 -9.85 74.35 -8.3 75.25 -6.75 74.35L5.95 90.7Q5.6 91.1 5.5 91.35 4.9 92.45 5.2 93.7 5.6 95 6.75 95.65L7.3 95.95 4.75 112.8Q3.5 112.85 2.85 114 2.35 114.85 2.55 115.75 2.9 116.65 3.7 117.15 4.55 117.65 5.5 117.4 6.4 117.15 6.9 116.25 7.4 115.4 7.1 114.45 6.85 113.6 5.95 113.1L5.65 113 8.25 96.1Q10.15 96.05 11.05 94.4L11.2 94.05 25.95 97.6Q25.9 99 27.15 99.75 27.95 100.25 28.95 100 29.9 99.7 30.35 98.85 30.85 98 30.55 97.05 30.3 96.2 29.45 95.7 28.6 95.2 27.65 95.5 26.75 95.75 26.25 96.6L26.2 96.7 11.45 93.15Q11.5 92.25 11.1 91.4 10.6 90.55 9.8 90.1 8.25 89.2 6.75 90.05L-6.05 73.75Q-5.8 73.55 -5.55 73.1 -4.65 71.5 -5.55 69.95L10.45 56.8 11.05 57.25Q12.15 57.85 13.45 57.5 14.7 57.1 15.35 56 15.65 55.4 15.75 54.75L31.75 53.9Q31.95 54.9 32.85 55.35 33.7 55.85 34.65 55.55 35.55 55.3 36.05 54.45 36.55 53.65 36.25 52.65 36 51.8 35.15 51.3 34.35 50.8 33.35 51.05 32.45 51.35 31.95 52.2 31.75 52.5 31.7 52.95L15.65 53.85Q15.35 52.35 14.1 51.65 13 51 11.7 51.4 10.45 51.75 9.8 52.9 8.9 54.45 9.8 56.05L-6.15 69.2Q-6.3 69.05 -6.75 68.75 -7.9 68.15 -9.15 68.55 -10.45 68.85 -11.1 70L-11.2 70.3 -31.35 65.1Q-31.1 63.55 -31.75 62.05 -32.45 60.6 -33.9 59.8 -36.05 58.6 -38.4 59.55L-49.65 39.9Q-48.5 39.15 -47.85 37.9 -46.55 35.6 -47.3 33.05 -48 30.5 -50.25 29.25 -52.55 27.95 -55.15 28.65 -57.7 29.4 -58.95 31.7L-59.1 32 -85.9 22.5Q-85.15 19.75 -86.4 17.2L-57.8 -.4Q-57.05 .55 -55.85 1.25 -53.75 2.45 -51.35 1.9 -49 1.35 -47.6 -.65L-31.5 8.35Q-32 9.7 -31.5 11.1 -31 12.5 -29.7 13.2 -28.25 14.05 -26.6 13.55 -25.05 13.1 -24.2 11.65 -23.6 10.45 -23.8 9L-8.7 4.35Q-7.9 6.15 -6.4 7 -4.55 8 -2.55 7.45 -.5 7 .7 5.3L15.8 13.7Q15.2 15.15 15.7 16.6 16.2 18 17.55 18.8 19 19.6 20.65 19.15 22.2 18.65 23.05 17.2 23.45 16.5 23.5 15.5L46.85 16.75Q47.05 18 48.15 18.6 49.05 19.2 50.15 18.85 51.15 18.55 51.7 17.65 52.15 16.65 51.9 15.65 51.6 14.6 50.7 14.1 49.75 13.6 48.7 13.9 47.65 14.15 47.15 15.1 46.9 15.5 46.95 15.75L23.4 14.45Q23.05 12.65 21.45 11.75 20.15 11 18.7 11.3 17.2 11.6 16.25 12.9L1.15 4.4Q1.8 2.95 1.55 1.4 1.3 -.15 .2 -1.3L12.6 -14.1 13.05 -13.8Q14.25 -13.05 15.65 -13.45 17.05 -13.85 17.75 -15.1 18.4 -16.35 18 -17.7 17.65 -19.1 16.4 -19.75 15.2 -20.45 13.8 -20.1 12.4 -19.7 11.7 -18.45 11.2 -17.55 11.35 -16.45 11.45 -15.4 12.1 -14.6L-.25 -1.85Q-.65 -2.15 -1.1 -2.45 -3.1 -3.5 -5.2 -2.9 -7.35 -2.3 -8.45 -.35 -9.4 1.35 -9 3.4L-24.1 8Q-24.6 6.8 -25.75 6.15 -27.05 5.45 -28.5 5.7 -29.95 6 -30.9 7.15L-46.9 -1.85Q-45.95 -4 -46.75 -6.25 -47.45 -8.55 -49.5 -9.8L-41.2 -26.45Q-40.1 -26.05 -38.9 -26.5 -37.75 -27 -37.2 -28.1 -36.45 -29.35 -36.8 -30.7 -37.25 -32.1 -38.5 -32.75 -39.75 -33.45 -41.1 -33.1 -42.5 -32.65 -43.15 -31.45 -43.85 -30.25 -43.5 -28.95 -43.2 -27.65 -42.05 -26.95L-50.4 -10.15Q-52.55 -11.05 -54.8 -10.3 -57.1 -9.55 -58.35 -7.4 -59.9 -4.5 -58.5 -1.5L-87.05 16.05Q-88.1 14.6 -89.5 13.8L-89.85 13.6 -86.6 5.4Q-85.2 5.65 -83.85 5.1 -82.45 4.5 -81.75 3.2 -80.8 1.55 -81.35 -.2 -81.85 -2.05 -83.45 -2.95 -85.1 -3.8 -86.9 -3.3 -88.7 -2.8 -89.6 -1.2 -90.45 .45 -90 2.2 -89.5 4 -87.9 4.9L-91.1 13.2Q-93.2 12.55 -95.3 13.1L-120.05 -45.65Q-118.3 -46.65 -117.2 -48.5 -116.35 -49.9 -116.25 -51.55L-109.15 -51.45Q-109.15 -50.5 -108.6 -49.65 -108.1 -48.8 -107.2 -48.35 -106.2 -47.8 -105.1 -47.8 -104.05 -47.9 -103.2 -48.45L-93.1 -37.6 -93.55 -37Q-94.35 -35.65 -93.9 -34.05 -93.4 -32.5 -92.05 -31.7 -90.65 -31 -89.05 -31.4 -87.5 -31.85 -86.75 -33.25 -85.95 -34.65 -86.4 -36.15 -86.85 -37.75 -88.25 -38.55 -89.25 -39.05 -90.35 -38.95 -91.5 -38.9 -92.4 -38.3L-102.4 -49.05 -101.9 -49.8Q-101.35 -50.9 -101.5 -52.05 -101.55 -53.25 -102.35 -54.2L-96.25 -59.6 -96.15 -59.55Q-95.3 -59.05 -94.3 -59.35 -93.45 -59.6 -92.95 -60.4 -92.45 -61.3 -92.75 -62.25 -93 -63.15 -93.9 -63.65 -94.75 -64.1 -95.6 -63.85 -96.55 -63.6 -97 -62.75 -97.75 -61.5 -96.95 -60.35L-103.15 -54.85 -103.45 -55.1Q-104.8 -55.85 -106.35 -55.45 -107.9 -54.95 -108.65 -53.6 -108.95 -53.05 -109.05 -52.45L-116.25 -52.6Q-116.35 -54.5 -117.3 -56.2 -118.35 -57.9 -120.1 -58.85L-120.85 -59.2 -108.35 -102.5Q-106.45 -102.25 -104.7 -103.1 -102.9 -104 -101.95 -105.7 -100.85 -107.7 -101.25 -109.95L-53.9 -126.35Q-52.85 -124.15 -50.85 -123.05L-50.5 -122.9 -59.5 -100.2Q-61.65 -100.75 -63.65 -99.95 -65.65 -99.1 -66.75 -97.15 -67.5 -95.8 -67.55 -94.25 -67.6 -92.7 -67 -91.35L-80.55 -83.05Q-80.9 -83.45 -81.5 -83.9 -82.8 -84.6 -84.25 -84.2 -85.7 -83.8 -86.4 -82.5 -87.1 -81.25 -86.65 -79.8 -86.3 -78.35 -85 -77.65 -83.7 -76.95 -82.3 -77.4 -80.9 -77.75 -80.2 -79.05 -79.3 -80.55 -80 -82.15L-66.45 -90.45Q-65.5 -89.2 -64.3 -88.5 -62 -87.2 -59.45 -87.9L-51.7 -68.75Q-52.95 -68.05 -53.7 -66.8 -54.65 -64.95 -54.1 -62.9 -53.55 -60.9 -51.7 -59.85 -49.85 -58.8 -47.75 -59.35 -45.7 -59.95 -44.75 -61.75 -43.7 -63.65 -44.25 -65.7 -44.85 -67.7 -46.7 -68.8 -48.5 -69.75 -50.45 -69.3L-58.2 -88.45Q-56.65 -89.25 -55.65 -90.95 -54.35 -93.25 -55.1 -95.75 -55.8 -98.3 -58.15 -99.6L-58.25 -99.65 -49.3 -122.45Q-46.9 -121.7 -44.55 -122.55 -42.15 -123.4 -40.8 -125.45L-8.8 -109.6Q-9.35 -107.95 -8.95 -106.25 -8.5 -104.55 -7.35 -103.3L-12.1 -97.9 -12.3 -98Q-13.55 -98.7 -14.9 -98.35 -16.3 -97.95 -16.95 -96.65 -17.65 -95.45 -17.25 -94.1 -16.85 -92.7 -15.6 -92.05 -14.4 -91.35 -13.05 -91.75 -11.65 -92.15 -11 -93.3 -10.5 -94.3 -10.55 -95.35 -10.7 -96.35 -11.35 -97.15L-6.55 -102.65 -5.85 -102.1Q-4.3 -101.3 -2.55 -101.3 -.85 -101.35 .6 -102.25L13.7 -86.55Q13.1 -86 12.55 -85.1 11 -82.25 11.85 -79.15 12.75 -76.05 15.6 -74.5 16.55 -73.9 18.05 -73.6L16.9 -58.65Q15.6 -58.6 14.45 -57.95 13.35 -57.2 12.65 -56.05 11.65 -54.2 12.2 -52.2 12.8 -50.1 14.65 -49.05 16.5 -48.05 18.6 -48.6 20.6 -49.2 21.6 -51.05 22.65 -52.9 22.1 -54.95 21.55 -57 19.65 -58 19.2 -58.3 18.25 -58.6L19.4 -73.55Q21.45 -73.55 23.2 -74.6 25.05 -75.65 26.05 -77.5L26.55 -78.55 46.1 -73.1Q45.85 -71.55 46.55 -70.15 47.25 -68.65 48.65 -67.85 50.7 -66.7 52.95 -67.6L59.85 -55Q59.25 -54.55 58.8 -53.8 57.95 -52.35 58.45 -50.75 58.9 -49.1 60.3 -48.35L61 -48.05 58.15 -34.15Q57.2 -34.15 56.35 -33.7 55.5 -33.3 55 -32.45 54.3 -31.2 54.7 -29.8 55.1 -28.45 56.3 -27.75 57.6 -27.05 58.95 -27.45 60.3 -27.8 60.95 -29.1 61.7 -30.3 61.3 -31.7 60.95 -33.05 59.65 -33.7L59.15 -33.95 62 -47.8Q63.2 -47.75 64.2 -48.25 65.25 -48.8 65.85 -49.9L66.05 -50.35 91.95 -43.6Q91.75 -42.45 92.3 -41.35 92.85 -40.2 93.95 -39.65 95.4 -38.8 97.05 -39.25 98.6 -39.75 99.45 -41.2 100.25 -42.65 99.75 -44.25 99.3 -45.8 97.9 -46.7 96.45 -47.45 94.8 -47 93.25 -46.55 92.4 -45.1L92.2 -44.6 66.3 -51.35Q66.5 -52.55 65.95 -53.65 65.35 -54.75 64.3 -55.4 62.75 -56.25 61 -55.65L54.15 -68.2Q55.15 -68.95 55.6 -69.85 56.65 -71.75 56.1 -73.75 55.5 -75.8 53.65 -76.8 51.8 -77.9 49.75 -77.3 47.65 -76.75 46.65 -74.85L46.45 -74.35 26.9 -79.85Q27.4 -82.3 26.35 -84.5 25.25 -86.8 23.1 -88.05 21.2 -89.1 19 -89 16.9 -88.9 15.15 -87.75L2.05 -103.45Q2.5 -103.9 2.85 -104.6 4 -106.6 3.5 -108.95L38.7 -121.7Q39.75 -119.65 41.85 -118.45 44.5 -116.95 47.45 -117.7 50.35 -118.4 52.05 -120.9L96.1 -98.65Q95.15 -96.05 96.1 -93.4 97.05 -90.75 99.6 -89.35 101.4 -88.3 103.45 -88.35 105.4 -88.35 107.1 -89.3L121.05 -68.9Q120.5 -68.45 120.1 -67.8 119.2 -66.15 119.7 -64.35 120.25 -62.55 121.9 -61.65 123.55 -60.7 125.3 -61.2 127.15 -61.75 128.1 -63.35 129 -65.05 128.45 -66.8 127.95 -68.65 126.3 -69.6 124.25 -70.7 122.1 -69.7L108.25 -90.1Q109.35 -91 110.1 -92.3 111.6 -95 110.85 -97.95L145.75 -110.1Q146.65 -108.15 148.4 -107.1 150.8 -105.8 153.45 -106.5 156 -107.3 157.35 -109.65 157.75 -110.3 157.95 -111.05L187.65 -105.9Q187.7 -104.65 188.25 -103.6 188.9 -102.45 190.05 -101.85 192 -100.75 194.1 -101.7L200.3 -91.05Q199.8 -90.6 199.55 -90.15 198.95 -89.05 199.3 -87.85 199.65 -86.65 200.75 -86 201.85 -85.35 203.05 -85.7 204.3 -86.05 204.95 -87.2 205.55 -88.3 205.25 -89.55 204.85 -90.8 203.75 -91.4 202.5 -92.05 201.15 -91.55L194.9 -102.15Q195.7 -102.7 196.15 -103.6 197 -105 196.6 -106.7L217.85 -113.65Q218.3 -112.7 219.3 -112.15 220.5 -111.4 221.85 -111.85 223.25 -112.25 223.9 -113.45 224.5 -114.5 224.3 -115.6 224.15 -116.75 223.35 -117.55L233.3 -130.9Q234.55 -130.2 235.9 -130.6 237.3 -131 237.9 -132.2 238.5 -133.25 238.3 -134.45L258.1 -140.55Q258.45 -139.85 259.25 -139.4 260.3 -138.8 261.45 -139.1 262.6 -139.45 263.15 -140.5 263.75 -141.5 263.4 -142.65 263.1 -143.8 262.1 -144.4 261.05 -144.95 259.85 -144.6 258.7 -144.3 258.15 -143.3 257.75 -142.5 257.8 -141.5L238.05 -135.4Q237.55 -136.4 236.65 -136.85 235.4 -137.6 234 -137.2 232.7 -136.8 231.95 -135.6 231.35 -134.55 231.55 -133.4 231.75 -132.25 232.55 -131.45L222.6 -118.1Q221.3 -118.8 220 -118.45 218.6 -118 217.95 -116.8 217.35 -115.75 217.65 -114.5L196.35 -107.65Q195.75 -109.05 194.4 -109.75 192.8 -110.65 190.95 -110.15 189.2 -109.65 188.25 -108L187.9 -107.25 158.2 -112.4Q158.3 -114.3 157.4 -115.95 156.5 -117.6 154.8 -118.6L154.75 -118.6 168.8 -152.25Q171 -151.55 173.2 -152.35 175.3 -153.25 176.5 -155.3 177.6 -157.2 177.3 -159.4 177 -161.45 175.45 -163L200.2 -192.8 200.3 -192.7Q201.9 -191.8 203.7 -192.3 205.55 -192.8 206.45 -194.45 207.1 -195.55 207 -196.85L233.25 -202.15Q233.6 -201.15 234.5 -200.7 235.55 -200.1 236.65 -200.4 237.8 -200.75 238.4 -201.8 239 -202.8 238.6 -204 238.3 -205.1 237.25 -205.7 236.25 -206.3 235.1 -205.9 233.95 -205.55 233.4 -204.6 233.05 -203.95 233.05 -203.1L206.85 -197.75Q206.45 -199.65 204.7 -200.6 204.25 -200.85 203.6 -201.05L206.95 -234.4Q209.65 -234.5 211 -236.9 211.7 -238.2 211.65 -239.7 211.45 -241.15 210.6 -242.25L243 -273.2 243.5 -272.9Q244.75 -272.25 246.05 -272.6 247.45 -273 248.1 -274.25 248.8 -275.5 248.45 -276.8 248.05 -278.2 246.8 -278.85L246.4 -279.05 254.5 -311.8Q256.3 -311.7 257.15 -313.3Z"/></g></g><g id="flash0.ai_Layer-1_hexagons" transform="translate(-851.1 191.5)"><g id="flash0.ai_Layer-1_hexagons1" transform="translate(766.35 0)" opacity=".2"><g id="Tween-9" transform="translate(534.9 257.35)"><g id="Tween-11"><animateTransform attributeName="transform" additive="replace" type="rotate" repeatCount="indefinite" dur="11s" keyTimes="0;.997;1" values="0,0,0;360,0,0;360,0,0"/><g id="flash0.ai_Layer-1_.__3CGroup.__3E_1_2" transform="translate(28 20.15)" opacity=".3"><g mask="url(#mask_26)"><g id="Symbol-127" transform="translate(98.5 85.65)"><g id="flash0.ai_Layer-1_.__3CClip-Group.__3E_40" transform="translate(-98.5 -85.65)"><g mask="url(#mask_33)"><g id="Symbol-141" transform="translate(98.5 85.65)"><path fill="url(#Gradient_2)" stroke="none" d="M98.5 84.15L97.15 -85.65 -98.5 -84.1 -97.15 85.7 98.5 84.15Z"/></g></g><mask id="mask_33"><g><g id="Symbol-140" transform="translate(98.5 85.65)"><g id="Symbol 71_0.0"><g><g id="Layer66_0_FILL"><path fill="#FFF" stroke="none" d="M48.6 84.15L97.15 .05 48.6 -84.1 -48.55 -84.1 -97.15 .05 -48.55 84.15 48.6 84.15Z" fill-opacity="1"/></g></g></g></g></g></mask></g></g></g><mask id="mask_26"><g><g id="Symbol-126" transform="translate(98.5 85.65)"><g id="Symbol 57_0.0"><g><g id="Layer54_0_FILL"><path fill="#FFF" stroke="none" d="M-97.15 -84.1L-97.15 84.15 97.15 84.15 97.15 -84.1 -97.15 -84.1Z" fill-opacity="1"/></g></g></g></g></g></mask></g><g id="flash0.ai_Layer-1_.__3CClip-Group.__3E_4_2" transform="translate(162.2 -133.3)"><g mask="url(#mask_21)"><g id="Symbol-117" transform="translate(103.65 90.15)"><path fill="url(#Gradient_12)" stroke="none" d="M103.65 88.55L102.2 -90.15 -103.65 -88.5 -102.2 90.2 103.65 88.55Z"/></g></g><mask id="mask_21"><g><g id="Symbol-116" transform="translate(103.6 90.15)"><g id="Symbol 51_0.0"><g><g id="Layer44_0_FILL"><path fill="#FFF" stroke="none" d="M51.15 88.55L102.25 0 51.15 -88.5 -51.05 -88.5 -102.2 0 -51.05 88.55 51.15 88.55M85.05 0L42.55 73.65 -42.45 73.65 -84.95 0 -42.45 -73.6 42.55 -73.6 85.05 0Z" fill-opacity="1"/></g></g></g></g></g></mask></g><g id="flash0.ai_Layer-1_.__3CGroup.__3E_12" transform="translate(-347.35 -95.7)" opacity=".3"><g mask="url(#mask_27)"><g id="Symbol-129" transform="translate(70.55 61.35)"><g id="flash0.ai_Layer-1_.__3CClip-Group.__3E_41" transform="translate(-70.55 -61.35)"><g mask="url(#mask_34)"><g id="Symbol-143" transform="translate(70.55 61.35)"><path fill="url(#Gradient_1)" stroke="none" d="M69.6 -61.35L-70.55 -60.25 -69.6 61.4 70.6 60.3 69.6 -61.35Z"/></g></g><mask id="mask_34"><g><g id="Symbol-142" transform="translate(70.55 61.35)"><g id="Symbol 63_0.0"><g><g id="Layer68_0_FILL"><path fill="#FFF" stroke="none" d="M-69.6 .05L-34.8 60.3 34.8 60.3 69.65 .05 34.8 -60.25 -34.8 -60.25 -69.6 .05Z" fill-opacity="1"/></g></g></g></g></g></mask></g></g></g><mask id="mask_27"><g><g id="Symbol-128" transform="translate(70.55 61.35)"><g id="Symbol 62_0.0"><g><g id="Layer55_0_FILL"><path fill="#FFF" stroke="none" d="M-69.6 60.3L69.65 60.3 69.65 -60.25 -69.6 -60.25 -69.6 60.3Z" fill-opacity="1"/></g></g></g></g></g></mask></g><g id="flash0.ai_Layer-1_.__3CClip-Group.__3E_2_2" transform="translate(-238.9 -158.6)"><g mask="url(#mask_22)"><g id="Symbol-119" transform="translate(50.8 44.2)"><path fill="url(#Gradient_11)" stroke="none" d="M50.85 43.4L50.15 -44.2 -50.8 -43.4 -50.1 44.25 50.85 43.4Z"/></g></g><mask id="mask_22"><g><g id="Symbol-118" transform="translate(50.8 44.2)"><g id="Symbol 45_0.0"><g><g id="Layer46_0_FILL"><path fill="#FFF" stroke="none" d="M25.1 43.45L50.15 0 25.1 -43.4 -25.05 -43.4 -50.1 0 -25.05 43.45 25.1 43.45M38.7 0L19.35 33.5 -19.3 33.5 -38.6 0 -19.3 -33.45 19.35 -33.45 38.7 0Z" fill-opacity="1"/></g></g></g></g></g></mask></g><g id="flash0.ai_Layer-1_.__3CClip-Group.__3E_7_2" transform="translate(-51.5 -191.6)"><g mask="url(#mask_23)"><g id="Symbol-121" transform="translate(107.05 93.15)"><path fill="url(#Gradient_10)" stroke="none" d="M107.1 91.45L105.6 -93.15 -107.05 -91.45 -105.6 93.15 107.1 91.45Z"/></g></g><mask id="mask_23"><g><g id="Symbol-120" transform="translate(107.05 93.15)"><g id="Symbol 59_0.0"><g><g id="Layer48_0_FILL"><path fill="#FFF" stroke="none" d="M52.8 91.5L105.65 0 52.8 -91.45 -52.8 -91.45 -105.6 0 -52.8 91.5 52.8 91.5M88.4 0L44.2 76.55 -44.2 76.55 -88.4 0 -44.2 -76.55 44.2 -76.55 88.4 0Z" fill-opacity="1"/></g></g></g></g></g></mask></g><g id="flash0.ai_Layer-1_.__3CClip-Group.__3E_6_2" transform="translate(-369.05 -97.65)"><g mask="url(#mask_24)"><g id="Symbol-123" transform="translate(72.8 63.3)"><path fill="url(#Gradient_9)" stroke="none" d="M71.8 -63.3L-72.8 -62.15 -71.8 63.35 72.8 62.2 71.8 -63.3Z"/></g></g><mask id="mask_24"><g><g id="Symbol-122" transform="translate(72.8 63.3)"><g id="Symbol 41_0.0"><g><g id="Layer50_0_FILL"><path fill="#FFF" stroke="none" d="M-71.8 .05L-35.9 62.2 35.9 62.2 71.8 .05 35.9 -62.15 -35.9 -62.15 -71.8 .05M-30.05 52.1L-60.1 .05 -30.05 -52 30.05 -52 60.1 .05 30.05 52.1 -30.05 52.1Z" fill-opacity="1"/></g></g></g></g></g></mask></g></g></g><g id="Tween-8" transform="translate(462.45 303.9)"><g id="Tween-10"><animateTransform attributeName="transform" additive="replace" type="translate" repeatCount="indefinite" dur="13.2s" keyTimes="0;1" values="82,-38;82,-38"/><animateTransform attributeName="transform" additive="sum" type="rotate" repeatCount="indefinite" dur="13.2s" keyTimes="0;.997;1" values="0,0,0;360,0,0;360,0,0"/><animateTransform attributeName="transform" additive="sum" type="translate" repeatCount="indefinite" dur="13.2s" keyTimes="0;1" values="-82,38;-82,38"/><g id="flash0.ai_Layer-1_.__3CGroup.__3E_11" transform="translate(-26.1 -195.3)" opacity=".3"><g mask="url(#mask_32)"><g id="Symbol-139" transform="translate(52.55 45.75)"><path fill="url(#Gradient_3)" stroke="none" d="M52.6 44.9L51.85 -45.75 -52.55 -44.9 -51.85 45.75 52.6 44.9Z"/></g></g><mask id="mask_32"><g><g id="Symbol-138" transform="translate(52.55 45.75)"><g id="Symbol 53_0.0"><g><g id="Layer64_0_FILL"><path fill="#FFF" stroke="none" d="M25.95 44.9L51.85 0 25.95 -44.9 -25.9 -44.9 -51.85 0 -25.9 44.9 25.95 44.9Z" fill-opacity="1"/></g></g></g></g></g></mask></g><g id="flash0.ai_Layer-1_.__3CClip-Group.__3E_1_2" transform="translate(241.05 -232.9)"><g mask="url(#mask_17)"><g id="Symbol-110" transform="translate(68.3 59.4)"><path fill="url(#Gradient_15)" stroke="none" d="M67.35 -59.4L-68.3 -58.3 -67.4 59.45 68.3 58.4 67.35 -59.4Z"/></g></g><mask id="mask_17"><g><g id="Symbol-109" transform="translate(68.3 59.45)"><g id="Symbol 48_0.0"><g><g id="Layer37_0_FILL"><path fill="#FFF" stroke="none" d="M-67.4 0L-33.7 58.35 33.7 58.35 67.4 0 33.7 -58.35 -33.7 -58.35 -67.4 0Z" fill-opacity="1"/></g></g></g></g></g></mask></g><g id="flash0.ai_Layer-1_.__3CClip-Group.__3E_5_2" transform="translate(-120.2 -18.25)"><g mask="url(#mask_18)"><g id="Symbol-112" transform="translate(134.75 117.2)"><path fill="url(#Gradient_14)" stroke="none" d="M132.9 -117.2L-134.75 -115.05 -132.9 117.25 134.75 115.1 132.9 -117.2Z"/></g></g><mask id="mask_18"><g><g id="Symbol-111" transform="translate(134.75 117.2)"><g id="Symbol 55_0.0"><g><g id="Layer39_0_FILL"><path fill="#FFF" stroke="none" d="M-132.9 0L-66.45 115.1 66.45 115.1 132.9 0 66.45 -115.1 -66.45 -115.1 -132.9 0M-57.85 100.2L-115.7 0 -57.85 -100.15 57.85 -100.15 115.7 0 57.85 100.2 -57.85 100.2Z" fill-opacity="1"/></g></g></g></g></g></mask></g><g id="flash0.ai_Layer-1_.__3CClip-Group.__3E_30" transform="translate(-377.7 -3.3)"><g mask="url(#mask_19)" id="Layer31_0_FILL"><path fill="url(#Gradient_17)" stroke="none" d="M135.65 0L0 1.1 .95 118.9 136.6 117.8 135.65 0Z"/></g><mask id="mask_19"><g><g id="Symbol-113" transform="translate(68.3 59.45)"><g id="Symbol 1_0.0"><g><g id="Layer41_0_FILL"><path fill="#FFF" stroke="none" d="M-67.35 0L-33.7 58.35 33.7 58.35 67.35 0 33.7 -58.35 -33.7 -58.35 -67.35 0Z" fill-opacity="1"/></g></g></g></g></g></mask></g><g id="flash0.ai_Layer-1_.__3CClip-Group.__3E_3_2" transform="translate(-275 81)"><g mask="url(#mask_20)"><g id="Symbol-115" transform="translate(87.5 76.1)"><path fill="url(#Gradient_13)" stroke="none" d="M87.55 74.75L86.35 -76.1 -87.5 -74.75 -86.3 76.15 87.55 74.75Z"/></g></g><mask id="mask_20"><g><g id="Symbol-114" transform="translate(87.5 76.1)"><g id="Symbol 43_0.0"><g><g id="Layer42_0_FILL"><path fill="#FFF" stroke="none" d="M43.2 74.75L86.35 0 43.2 -74.75 -43.15 -74.75 -86.3 0 -43.15 74.75 43.2 74.75M69.15 0L34.6 59.85 -34.55 59.85 -69.1 0 -34.55 -59.85 34.6 -59.85 69.15 0Z" fill-opacity="1"/></g></g></g></g></g></mask></g></g></g></g><g id="Tween-3" transform="matrix(.9 .44 -.44 .9 1302.1 259.5)"><g id="Tween-7"><animateTransform attributeName="transform" additive="replace" type="rotate" repeatCount="indefinite" dur="13.13s" keyTimes="0;.998;1" values="0,0,0;360,0,0;360,0,0"/><g id="flash0.ai_Layer-1_.__3CClip-Group.__3E_6_1" transform="translate(-358.95 85.85)"><g mask="url(#mask_6)"><g id="Symbol-88" transform="translate(32.8 28.6)"><path fill="url(#Gradient_23)" stroke="none" d="M32.4 -28.6L-32.8 -28.05 -32.35 28.6 32.85 28.05 32.4 -28.6Z"/></g></g><mask id="mask_6"><g><g id="Symbol-87" transform="translate(32.8 28.6)"><g id="Symbol 24_0.0"><g><g id="Layer18_0_FILL"><path fill="#FFF" stroke="none" d="M16.2 -28.05L-16.2 -28.05 -32.35 0 -16.2 28.05 16.2 28.05 32.4 0 16.2 -28.05M-12.5 -21.65L12.5 -21.65 25 0 12.5 21.65 -12.5 21.65 -25 0 -12.5 -21.65Z" fill-opacity="1"/></g></g></g></g></g></mask></g><g id="flash0.ai_Layer-1_.__3CClip-Group.__3E_8_0" transform="translate(-131.85 10.4)"><g mask="url(#mask_7)"><g id="Symbol-90" transform="translate(56.55 49.2)"><path fill="url(#Gradient_22)" stroke="none" d="M56.6 48.35L55.8 -49.2 -56.55 -48.3 -55.8 49.25 56.6 48.35Z"/></g></g><mask id="mask_7"><g><g id="Symbol-89" transform="translate(56.55 49.2)"><g id="Symbol 22_0.0"><g><g id="Layer20_0_FILL"><path fill="#FFF" stroke="none" d="M27.9 -48.3L-27.9 -48.3 -55.8 .05 -27.9 48.35 27.9 48.35 55.8 .05 27.9 -48.3M-22.35 -38.65L22.35 -38.65 44.7 .05 22.35 38.75 -22.35 38.75 -44.65 .05 -22.35 -38.65Z" fill-opacity="1"/></g></g></g></g></g></mask></g><g id="flash0.ai_Layer-1_.__3CClip-Group.__3E_9_0" transform="translate(-354.9 -13.2)"><g mask="url(#mask_8)"><g id="Symbol-92" transform="translate(43.35 37.7)"><path fill="url(#Gradient_21)" stroke="none" d="M43.4 37.05L42.8 -37.7 -43.35 -37 -42.75 37.75 43.4 37.05Z"/></g></g><mask id="mask_8"><g><g id="Symbol-91" transform="translate(43.35 37.7)"><g id="Symbol 20_0.0"><g><g id="Layer22_0_FILL"><path fill="#FFF" stroke="none" d="M21.4 37.05L42.8 0 21.4 -37.05 -21.35 -37.05 -42.75 0 -21.35 37.05 21.4 37.05M35.6 0L17.8 30.85 -17.75 30.85 -35.55 0 -17.75 -30.8 17.8 -30.8 35.6 0Z" fill-opacity="1"/></g></g></g></g></g></mask></g><g id="flash0.ai_Layer-1_.__3CClip-Group.__3E_10_0" transform="translate(225.4 -105.8)"><g mask="url(#mask_9)"><g id="Symbol-94" transform="translate(67 58.25)"><path fill="url(#Gradient_20)" stroke="none" d="M66.1 -58.25L-67 -57.2 -66.05 58.3 67 57.25 66.1 -58.25Z"/></g></g><mask id="mask_9"><g><g id="Symbol-93" transform="translate(67 58.25)"><g id="Symbol 15_0.0"><g><g id="Layer24_0_FILL"><path fill="#FFF" stroke="none" d="M-66.1 0L-33.05 57.25 33.05 57.25 66.1 0 33.05 -57.2 -33.05 -57.2 -66.1 0M-27.45 47.6L-54.95 0 -27.45 -47.6 27.5 -47.6 54.95 0 27.5 47.6 -27.45 47.6Z" fill-opacity="1"/></g></g></g></g></g></mask></g><g id="flash0.ai_Layer-1_.__3CClip-Group.__3E_12_0" transform="translate(87.25 -143.5)"><g mask="url(#mask_10)"><g id="Symbol-96" transform="translate(69.2 60.2)"><path fill="url(#Gradient_19)" stroke="none" d="M68.3 -60.2L-69.2 -59.15 -68.25 60.2 69.25 59.1 68.3 -60.2Z"/></g></g><mask id="mask_10"><g><g id="Symbol-95" transform="translate(69.2 60.2)"><g id="Symbol 13_0.0"><g><g id="Layer26_0_FILL"><path fill="#FFF" stroke="none" d="M-68.25 0L-34.15 59.15 34.15 59.15 68.3 0 34.15 -59.15 -34.15 -59.15 -68.25 0M-28.55 49.5L-57.15 0 -28.55 -49.5 28.6 -49.5 57.15 0 28.6 49.5 -28.55 49.5Z" fill-opacity="1"/></g></g></g></g></g></mask></g><g id="flash0.ai_Layer-1_.__3CClip-Group.__3E_7_1" transform="translate(-33.9 -122.2)"><g mask="url(#mask_11)"><g id="Symbol-98" transform="translate(32.85 28.55)"><path fill="url(#Gradient_18)" stroke="none" d="M32.4 -28.55L-32.85 -28.05 -32.4 28.6 32.85 28.1 32.4 -28.55Z"/></g></g><mask id="mask_11"><g><g id="Symbol-97" transform="translate(32.85 28.55)"><g id="Symbol 10_0.0"><g><g id="Layer28_0_FILL"><path fill="#FFF" stroke="none" d="M-32.4 .05L-16.2 28.1 16.2 28.1 32.4 .05 16.2 -28.05 -16.2 -28.05 -32.4 .05M-12.5 21.7L-25 .05 -12.5 -21.6 12.5 -21.6 25 .05 12.5 21.7 -12.5 21.7Z" fill-opacity="1"/></g></g></g></g></g></mask></g><g id="flash0.ai_Layer-1_.__3CClip-Group.__3E_11_0" transform="translate(-31.8 -53.75)"><g mask="url(#mask_12)" id="Layer5_0_FILL"><path fill="url(#Gradient_30)" stroke="none" d="M174.2 150.2L173 0 0 1.4 1.2 151.55 174.2 150.2Z"/></g><mask id="mask_12"><g><g id="Symbol-99" transform="translate(87.1 75.8)"><g id="Symbol 8_0.0"><g><g id="Layer30_0_FILL"><path fill="#FFF" stroke="none" d="M42.95 74.4L85.95 0 42.95 -74.4 -42.95 -74.4 -85.9 0 -42.95 74.4 42.95 74.4M74.8 0L37.4 64.75 -37.4 64.75 -74.8 0 -37.4 -64.75 37.4 -64.75 74.8 0Z" fill-opacity="1"/></g></g></g></g></g></mask></g></g></g><g id="Tween-2" transform="matrix(.78 -.63 .63 .78 1302 259.3)"><g id="Tween-6"><animateTransform attributeName="transform" additive="replace" type="rotate" repeatCount="indefinite" dur="12.4s" keyTimes="0;.997;1" values="0,0,0;360,0,0;360,0,0"/><g id="flash0.ai_Layer-1_.__3CGroup.__3E_7" transform="translate(-333.45 49.35)" opacity=".3"><g id="Symbol-102" transform="translate(38.2 33.25)"><g id="flash0.ai_Layer-1_.__3CClip-Group.__3E_35" transform="translate(-38.2 -33.25)"><g mask="url(#mask_28)"><g id="Symbol-131" transform="translate(38.2 33.25)"><path fill="url(#Gradient_7)" stroke="none" d="M37.75 -33.25L-38.2 -32.65 -37.7 33.3 38.25 32.7 37.75 -33.25Z"/></g></g><mask id="mask_28"><g><g id="Symbol-130" transform="translate(38.2 33.25)"><g id="Symbol 39_0.0"><g><g id="Layer56_0_FILL"><path fill="#FFF" stroke="none" d="M-37.7 0L-18.8 32.7 18.9 32.7 37.75 0 18.9 -32.65 -18.8 -32.65 -37.7 0Z" fill-opacity="1"/></g></g></g></g></g></mask></g></g></g><g id="flash0.ai_Layer-1_.__3CGroup.__3E_8" transform="translate(206.5 37.7)" opacity=".3"><g mask="url(#mask_14)"><g id="Symbol-104" transform="translate(63.65 55.4)"><g id="flash0.ai_Layer-1_.__3CClip-Group.__3E_36" transform="translate(-63.65 -55.4)"><g mask="url(#mask_29)"><g id="Symbol-133" transform="translate(63.65 55.4)"><path fill="url(#Gradient_6)" stroke="none" d="M62.8 -55.4L-63.65 -54.4 -62.75 55.4 63.7 54.4 62.8 -55.4Z"/></g></g><mask id="mask_29"><g><g id="Symbol-132" transform="translate(63.65 55.4)"><g id="Symbol 67_0.0"><g><g id="Layer58_0_FILL"><path fill="#FFF" stroke="none" d="M-62.8 0L-31.4 54.4 31.45 54.4 62.85 0 31.45 -54.4 -31.4 -54.4 -62.8 0Z" fill-opacity="1"/></g></g></g></g></g></mask></g></g></g><mask id="mask_14"><g><g id="Symbol-103" transform="translate(63.65 55.4)"><g id="Symbol 32_0.0"><g><g id="Layer34_0_FILL"><path fill="#FFF" stroke="none" d="M-62.8 54.4L62.85 54.4 62.85 -54.4 -62.8 -54.4 -62.8 54.4Z" fill-opacity="1"/></g></g></g></g></g></mask></g><g id="flash0.ai_Layer-1_.__3CGroup.__3E_9" transform="translate(75.1 -148.2)" opacity=".3"><g mask="url(#mask_15)"><g id="Symbol-106" transform="translate(48.05 41.75)"><g id="flash0.ai_Layer-1_.__3CClip-Group.__3E_37" transform="translate(-48.05 -41.75)"><g mask="url(#mask_30)"><g id="Symbol-135" transform="translate(48.05 41.75)"><path fill="url(#Gradient_5)" stroke="none" d="M48.05 41.05L47.4 -41.75 -48.05 -41 -47.35 41.8 48.05 41.05Z"/></g></g><mask id="mask_30"><g><g id="Symbol-134" transform="translate(48.05 41.75)"><g id="Symbol 65_0.0"><g><g id="Layer60_0_FILL"><path fill="#FFF" stroke="none" d="M23.7 41.05L47.4 .05 23.7 -41 -23.7 -41 -47.35 .05 -23.7 41.05 23.7 41.05Z" fill-opacity="1"/></g></g></g></g></g></mask></g></g></g><mask id="mask_15"><g><g id="Symbol-105" transform="translate(48.05 41.75)"><g id="Symbol 30_0.0"><g><g id="Layer35_0_FILL"><path fill="#FFF" stroke="none" d="M-47.35 -41L-47.35 41.05 47.4 41.05 47.4 -41 -47.35 -41Z" fill-opacity="1"/></g></g></g></g></g></mask></g><g id="flash0.ai_Layer-1_.__3CGroup.__3E_10" transform="translate(-36.15 -37.2)" opacity=".3"><g mask="url(#mask_16)"><g id="Symbol-108" transform="translate(45.6 39.7)"><g id="flash0.ai_Layer-1_.__3CClip-Group.__3E_38" transform="translate(-45.6 -39.7)"><g mask="url(#mask_31)"><g id="Symbol-137" transform="translate(45.6 39.7)"><path fill="url(#Gradient_4)" stroke="none" d="M45.65 38.95L45 -39.7 -45.6 -38.95 -45 39.7 45.65 38.95Z"/></g></g><mask id="mask_31"><g><g id="Symbol-136" transform="translate(45.6 39.7)"><g id="Symbol 69_0.0"><g><g id="Layer62_0_FILL"><path fill="#FFF" stroke="none" d="M22.5 38.95L45 0 22.5 -38.95 -22.5 -38.95 -45 0 -22.5 38.95 22.5 38.95Z" fill-opacity="1"/></g></g></g></g></g></mask></g></g></g><mask id="mask_16"><g><g id="Symbol-107" transform="translate(45.6 39.7)"><g id="Symbol 28_0.0"><g><g id="Layer36_0_FILL"><path fill="#FFF" stroke="none" d="M-45 -38.95L-45 38.95 45 38.95 45 -38.95 -45 -38.95Z" fill-opacity="1"/></g></g></g></g></g></mask></g><g id="flash0.ai_Layer-1_.__3CGroup.__3E_1_1" transform="translate(-1209 -20.35)" opacity=".2"><g id="flash0.ai_Layer-1_.__3CClip-Group.__3E_31" transform="translate(896.6 82.25)"><g mask="url(#mask_25)"><g id="Symbol-125" transform="translate(45 39.15)"><path fill="url(#Gradient_8)" stroke="none" d="M45 38.5L44.35 -39.15 -45 -38.45 -44.4 39.2 45 38.5Z"/></g></g><mask id="mask_25"><g><g id="Symbol-124" transform="translate(44.95 39.15)"><g id="Symbol 37_0.0"><g><g id="Layer52_0_FILL"><path fill="#FFF" stroke="none" d="M22.2 38.5L44.4 0 22.2 -38.45 -22.15 -38.45 -44.35 0 -22.15 38.5 22.2 38.5M37.2 0L18.6 32.2 -18.55 32.2 -37.1 0 -18.55 -32.15 18.6 -32.15 37.2 0Z" fill-opacity="1"/></g></g></g></g></g></mask></g></g></g></g><g id="Tween-1" transform="matrix(-.97 .26 -.26 -.97 1301.9 258.2)"><g id="Tween-5"><animateTransform attributeName="transform" additive="replace" type="rotate" repeatCount="indefinite" dur="20.83s" keyTimes="0;.999;1" values="0,0,0;360,0,0;360,0,0"/><g id="flash0.ai_Layer-1_.__3CClip-Group.__3E_23" transform="translate(-306.25 70.7)"><g mask="url(#mask_)"><g id="Symbol-76" transform="translate(23.1 20.1)"><path fill="url(#Gradient_29)" stroke="none" d="M23.15 19.75L22.8 -20.1 -23.1 -19.75 -22.8 20.1 23.15 19.75Z"/></g></g><mask id="mask_"><g><g id="Symbol-75" transform="translate(23.1 20.1)"><g id="Symbol 18_0.0"><g><g id="Layer6_0_FILL"><path fill="#FFF" stroke="none" d="M11.4 19.75L22.85 0 11.4 -19.75 -11.4 -19.75 -22.8 0 -11.4 19.75 11.4 19.75Z" fill-opacity="1"/></g></g></g></g></g></mask></g><g id="flash0.ai_Layer-1_.__3CGroup.__3E_2_0" transform="translate(80 145.4)" opacity=".8"><g mask="url(#mask_13)"><g id="Symbol-101" transform="translate(44.15 38.4)"><path fill="url(#Gradient_16)" stroke="none" d="M44.2 37.75L43.6 -38.4 -44.15 -37.7 -43.55 38.45 44.2 37.75Z"/></g></g><mask id="mask_13"><g><g id="Symbol-100" transform="translate(44.15 38.4)"><g id="Symbol 6_0.0"><g><g id="Layer32_0_FILL"><path fill="#FFF" stroke="none" d="M21.8 37.75L43.6 .05 21.8 -37.7 -21.75 -37.7 -43.55 .05 -21.75 37.75 21.8 37.75Z" fill-opacity="1"/></g></g></g></g></g></mask></g><g id="flash0.ai_Layer-1_.__3CClip-Group.__3E_4_1" transform="translate(-223.2 119.05)"><g mask="url(#mask_1)"><g id="Symbol-78" transform="translate(44.15 38.4)"><path fill="url(#Gradient_28)" stroke="none" d="M44.2 37.75L43.6 -38.4 -44.15 -37.7 -43.55 38.45 44.2 37.75Z"/></g></g><mask id="mask_1"><g><g id="Symbol-77" transform="translate(44.15 38.4)"><g id="Symbol 2_0.0"><g><g id="Layer8_0_FILL"><path fill="#FFF" stroke="none" d="M21.8 37.75L43.6 0 21.8 -37.7 -21.75 -37.7 -43.55 0 -21.75 37.75 21.8 37.75Z" fill-opacity="1"/></g></g></g></g></g></mask></g><g id="flash0.ai_Layer-1_.__3CClip-Group.__3E_5_1" transform="translate(218.2 -154.35)"><g mask="url(#mask_2)"><g id="Symbol-80" transform="translate(44.15 38.4)"><path fill="url(#Gradient_27)" stroke="none" d="M44.2 37.75L43.6 -38.4 -44.15 -37.7 -43.5 38.45 44.2 37.75Z"/></g></g><mask id="mask_2"><g><g id="Symbol-79" transform="translate(44.15 38.4)"><g id="Symbol 5_0.0"><g><g id="Layer10_0_FILL"><path fill="#FFF" stroke="none" d="M21.8 37.75L43.6 0 21.8 -37.7 -21.75 -37.7 -43.55 0 -21.75 37.75 21.8 37.75Z" fill-opacity="1"/></g></g></g></g></g></mask></g><g id="flash0.ai_Layer-1_.__3CClip-Group.__3E_1_1" transform="translate(111.1 -222.4)"><g mask="url(#mask_3)"><g id="Symbol-82" transform="translate(56.65 49.25)"><path fill="url(#Gradient_26)" stroke="none" d="M56.65 48.4L55.85 -49.25 -56.65 -48.35 -55.9 49.3 56.65 48.4Z"/></g></g><mask id="mask_3"><g><g id="Symbol-81" transform="translate(56.6 49.3)"><g id="Symbol 4_0.0"><g><g id="Layer12_0_FILL"><path fill="#FFF" stroke="none" d="M28 -48.4L-27.9 -48.4 -55.85 0 -27.9 48.4 28 48.4 55.9 0 28 -48.4Z" fill-opacity="1"/></g></g></g></g></g></mask></g><g id="flash0.ai_Layer-1_.__3CClip-Group.__3E_2_1" transform="translate(-181.8 -5.9)"><g mask="url(#mask_4)"><g id="Symbol-84" transform="translate(44.15 38.4)"><path fill="url(#Gradient_25)" stroke="none" d="M44.2 37.75L43.6 -38.4 -44.15 -37.7 -43.55 38.45 44.2 37.75Z"/></g></g><mask id="mask_4"><g><g id="Symbol-83" transform="translate(44.15 38.4)"><g id="Symbol 3_0.0"><g><g id="Layer14_0_FILL"><path fill="#FFF" stroke="none" d="M21.8 37.75L43.6 0 21.8 -37.7 -21.75 -37.7 -43.55 0 -21.75 37.75 21.8 37.75Z" fill-opacity="1"/></g></g></g></g></g></mask></g><g id="flash0.ai_Layer-1_.__3CClip-Group.__3E_3_1" transform="translate(-20 141.8)"><g mask="url(#mask_5)"><g id="Symbol-86" transform="translate(23.1 20.1)"><path fill="url(#Gradient_24)" stroke="none" d="M23.15 19.75L22.8 -20.1 -23.1 -19.7 -22.8 20.15 23.15 19.75Z"/></g></g><mask id="mask_5"><g><g id="Symbol-85" transform="translate(23.1 20.15)"><g id="Symbol 26_0.0"><g><g id="Layer16_0_FILL"><path fill="#FFF" stroke="none" d="M11.4 19.75L22.8 0 11.4 -19.75 -11.4 -19.75 -22.8 0 -11.4 19.75 11.4 19.75Z" fill-opacity="1"/></g></g></g></g></g></mask></g></g></g></g><g id="white_mask" transform="translate(450 450)"><path fill="#000" stroke="none" d="M573 -573L-573 -573 -573 573 573 573 573 -573M-395.8 -11.8Q-395.3 -32.7 -392.8 -52.85 -386.3 -105.9 -366.5 -153.35 -337.5 -222.6 -280.1 -280.1 -183.2 -376.85 -52.8 -392.8 -27 -396 0 -396 164.1 -396 279.95 -280.1 396 -164.05 396 0 396 164.05 279.95 279.95 164.1 396 0 396 -164.05 396 -280.1 279.95 -396 164.05 -396 0 -396 -5.95 -395.8 -11.8Z"/></g></g></svg>