<svg xmlns="http://www.w3.org/2000/svg" xmlns:xlink="http://www.w3.org/1999/xlink" viewBox="0 0 269.93 352.95"><defs><style>.a{fill:none;stroke:#fff;stroke-miterlimit:10;}.b{fill:#2faae1;}.c{fill:#fff;}.d{fill:url(#a);}.e{fill:url(#b);}.f{fill:url(#c);}</style><linearGradient id="a" x1="299.62" y1="91.63" x2="197.3" y2="182.68" gradientUnits="userSpaceOnUse"><stop offset="0" stop-color="#909296"/><stop offset="0.02" stop-color="#929498"/><stop offset="0.28" stop-color="#b2b3b6"/><stop offset="0.54" stop-color="#c9cacb"/><stop offset="0.79" stop-color="#d6d7d8"/><stop offset="1" stop-color="#dbdcdc"/></linearGradient><linearGradient id="b" x1="114.83" y1="88.7" x2="252.45" y2="-5.23" gradientUnits="userSpaceOnUse"><stop offset="0.3" stop-color="#909296"/><stop offset="0.31" stop-color="#929498"/><stop offset="0.5" stop-color="#b2b3b6"/><stop offset="0.68" stop-color="#c9cacb"/><stop offset="0.85" stop-color="#d6d7d8"/><stop offset="1" stop-color="#dbdcdc"/></linearGradient><linearGradient id="c" x1="4.47" y1="109.98" x2="166.4" y2="109.98" gradientUnits="userSpaceOnUse"><stop offset="0" stop-color="#2faae1"/><stop offset="0.15" stop-color="#2ea6dc"/><stop offset="0.33" stop-color="#2c99cf"/><stop offset="0.52" stop-color="#2885b8"/><stop offset="0.71" stop-color="#236898"/><stop offset="0.91" stop-color="#1c436f"/><stop offset="1" stop-color="#18305a"/></linearGradient></defs><rect class="a" x="0.5" y="0.5" width="268.93" height="351.95"/><path class="b" d="M38.06,235.71c0-17.08,12.68-26.59,25.36-26.59,11.68,0,19.9,6.34,22.49,16.22l-6.56,2.3c-1.94-7.71-7.57-12-15.93-12-9.29,0-18.16,6.77-18.16,20.1s8.87,20.18,18.16,20.18c8.72,0,14.2-5.26,16.29-12.25L86,246c-2.74,9.58-10.81,16.43-22.56,16.43C50.24,262.38,38.06,252.79,38.06,235.71Z"/><path class="b" d="M100.47,241.48l9.37-1.37c2.09-.29,2.67-1.37,2.67-2.6,0-3.38-2.24-6.19-7.5-6.19-4.76,0-7.42,3-7.85,7l-6.49-1.52c.72-6.63,6.7-11.24,14.2-11.24,10.37,0,14.41,5.91,14.41,12.69V255.6a33.27,33.27,0,0,0,.43,5.7h-6.63a25.82,25.82,0,0,1-.36-4.69c-1.51,2.45-5,5.77-11.17,5.77-7.06,0-11.6-4.9-11.6-10.38C90,245.8,94.49,242.34,100.47,241.48Zm12,5v-1.58l-10.6,1.58c-2.88.43-5,2.09-5,5.19,0,2.59,2.16,5,5.62,5C108,256.68,112.51,254,112.51,246.45Z"/><path class="b" d="M148,233.48a20.36,20.36,0,0,0-3-.22c-5.69,0-9.51,3-9.51,10.67V261.3H128.8V226.63h6.63v6.06a10.83,10.83,0,0,1,10.37-6.63,13.16,13.16,0,0,1,2.24.21Z"/><path class="b" d="M184.07,251.42c-1.94,6.13-7.49,11-15.56,11-9.3,0-17.44-6.78-17.44-18.52,0-10.89,7.85-18.31,16.57-18.31,10.67,0,16.65,7.35,16.65,18.16a15.83,15.83,0,0,1-.14,2.17H158.06c.14,6.19,4.61,10.52,10.45,10.52,5.62,0,8.43-3.1,9.73-7Zm-6.84-11c-.15-5-3.39-8.87-9.52-8.87a9.33,9.33,0,0,0-9.44,8.87Z"/><path class="c" d="M41.3,317.87V266.78H72.36v6.55h-24v15.72H70.13v6.63H48.36v15.64h24v6.55Z"/><path class="c" d="M104.36,331.57V313c-1.8,3.53-5.69,5.84-10.81,5.84-9.94,0-16.43-8.29-16.43-18.38,0-9.8,6.13-18.09,16.29-18.09,6,0,9.65,3.1,11.1,6.2v-5.33h6.55v48.36ZM94.2,312.83c6.13,0,10.23-5.26,10.23-12.4s-4.1-12.1-10.23-12.1S84,293.3,84,300.43,88,312.83,94.2,312.83Z"/><path class="c" d="M133.48,319c-8.07,0-13-6.06-13-13.91V283.21h6.77V304c0,4.75,2.16,8.93,7.86,8.93,5.47,0,8.21-3.6,8.21-8.86v-20.9h6.78v28.25a56.7,56.7,0,0,0,.36,6.41H144a31.18,31.18,0,0,1-.29-4.18C141.84,317.3,137.51,319,133.48,319Z"/><path class="c" d="M163.89,265.19a4.87,4.87,0,1,1-4.82,4.9A4.86,4.86,0,0,1,163.89,265.19Zm-3.31,52.68V283.21h6.7v34.66Z"/><path class="c" d="M186.88,283.21h7.5v6.13h-7.5v18c0,3.17,1.3,4.76,4.83,4.76a14.05,14.05,0,0,0,2.67-.29v5.77a15.16,15.16,0,0,1-4.61.64c-5.91,0-9.66-3.6-9.66-9.87v-19h-6.63v-6.13h1.87c3.75,0,5.34-2.31,5.34-5.33v-5.63h6.19Z"/><path class="c" d="M204,332.36l8.64-18.31L197.7,283.21h7.78l10.81,23.93,10.38-23.93H234l-22.56,49.15Z"/><path class="d" d="M107,177.28a1.07,1.07,0,0,0-.1,1.67c5.14,4.6,61.55,25.49,145.93,67.3v-226C224,63.14,159.17,140.47,107,177.28Z"/><path class="e" d="M40.55,19.32c44,31.42,112.64,90.51,146.68,138.7a1.1,1.1,0,0,0,1.74.11c4.5-5,25.07-57.52,63.86-136.43V19.32Z"/><path class="f" d="M165.53,76.72c1.19-.32,1.08-2.15.15-3-6-5.15-51.52-22.82-117.63-54.45H17.1V200.65C46,170.91,130.19,86.55,165.53,76.72Z"/></svg>